<svg width="24" height="24" viewBox="0 0 24 24" fill="none" xmlns="http://www.w3.org/2000/svg">
<g clip-path="url(#clip0_91_2495)">
<path d="M21.9982 0.739258H1.98114C1.29573 0.73967 0.740097 1.29558 0.740234 1.98126V21.9984C0.740646 22.6838 1.29655 23.2394 1.98224 23.2393H12.7593V14.5381H9.83692V11.1323H12.7593V8.62593C12.7593 5.71936 14.5337 4.13733 17.1265 4.13733C18.3683 4.13733 19.4355 4.22989 19.7466 4.27123V7.30908H17.9587C16.5481 7.30908 16.2749 7.97939 16.2749 8.96321V11.1323H19.6477L19.2083 14.5381H16.2749V23.2393H21.9982C22.6841 23.2394 23.2401 22.6836 23.2402 21.9978C23.2402 21.9977 23.2402 21.9975 23.2402 21.9973V1.98016C23.24 1.29475 22.6839 0.739121 21.9982 0.739258Z" fill="white"/>
</g>
<defs>
<clipPath id="clip0_91_2495">
<rect width="24" height="24" fill="white"/>
</clipPath>
</defs>
</svg>
