<svg width="24" height="24" viewBox="0 0 24 24" fill="none" xmlns="http://www.w3.org/2000/svg">
<g clip-path="url(#clip0_91_2491)">
<path d="M23.9754 7.05607C23.9192 5.78085 23.7129 4.90416 23.4175 4.14449C23.1128 3.33812 22.6439 2.61617 22.0297 2.01602C21.4295 1.40652 20.7028 0.932922 19.9058 0.632936C19.1417 0.337529 18.2696 0.131312 16.9944 0.0750879C15.7097 0.0141019 15.3018 0 12.0434 0C8.78491 0 8.37706 0.0141019 7.09708 0.0703262C5.82187 0.126551 4.94517 0.332951 4.18569 0.628175C3.37913 0.932922 2.65719 1.40176 2.05703 2.01602C1.44754 2.61617 0.97412 3.34288 0.673952 4.13991C0.378545 4.90416 0.172328 5.77609 0.116104 7.0513C0.0551175 8.33604 0.0410156 8.7439 0.0410156 12.0023C0.0410156 15.2608 0.0551175 15.6686 0.111342 16.9486C0.167566 18.2238 0.373966 19.1005 0.669373 19.8602C0.97412 20.6666 1.44754 21.3885 2.05703 21.9887C2.65719 22.5982 3.38389 23.0718 4.18092 23.3718C4.94517 23.6672 5.81711 23.8734 7.0925 23.9296C8.3723 23.986 8.78033 23.9999 12.0388 23.9999C15.2972 23.9999 15.7051 23.986 16.9851 23.9296C18.2603 23.8734 19.137 23.6672 19.8965 23.3718C21.5094 22.7482 22.7846 21.4729 23.4082 19.8602C23.7034 19.096 23.9098 18.2238 23.966 16.9486C24.0223 15.6686 24.0364 15.2608 24.0364 12.0023C24.0364 8.7439 24.0316 8.33604 23.9754 7.05607ZM21.8141 16.8549C21.7625 18.027 21.5656 18.6599 21.4015 19.0819C20.9982 20.1274 20.1684 20.9572 19.1229 21.3605C18.7009 21.5246 18.0634 21.7215 16.8959 21.7729C15.63 21.8293 15.2503 21.8433 12.0481 21.8433C8.8459 21.8433 8.46148 21.8293 7.20019 21.7729C6.02809 21.7215 5.39515 21.5246 4.97319 21.3605C4.45289 21.1682 3.97929 20.8635 3.59487 20.4649C3.19636 20.0758 2.89161 19.6069 2.69931 19.0866C2.53522 18.6647 2.33834 18.027 2.28688 16.8596C2.23047 15.5937 2.21655 15.2139 2.21655 12.0117C2.21655 8.80946 2.23047 8.42505 2.28688 7.16394C2.33834 5.99183 2.53522 5.3589 2.69931 4.93694C2.89161 4.41645 3.19636 3.94303 3.59963 3.55843C3.98863 3.15992 4.45747 2.85517 4.97795 2.66306C5.39991 2.49896 6.03761 2.30209 7.20495 2.25044C8.47083 2.19422 8.85066 2.18011 12.0527 2.18011C15.2597 2.18011 15.6393 2.19422 16.9006 2.25044C18.0727 2.30209 18.7057 2.49896 19.1276 2.66306C19.6479 2.85517 20.1215 3.15992 20.506 3.55843C20.9045 3.94761 21.2092 4.41645 21.4015 4.93694C21.5656 5.3589 21.7625 5.99641 21.8141 7.16394C21.8704 8.42981 21.8845 8.80946 21.8845 12.0117C21.8845 15.2139 21.8704 15.589 21.8141 16.8549Z" fill="white"/>
<path d="M12.0461 5.83722C8.64245 5.83722 5.88086 8.59862 5.88086 12.0025C5.88086 15.4063 8.64245 18.1678 12.0461 18.1678C15.45 18.1678 18.2114 15.4063 18.2114 12.0025C18.2114 8.59862 15.45 5.83722 12.0461 5.83722ZM12.0461 16.0017C9.83799 16.0017 8.04687 14.2108 8.04687 12.0025C8.04687 9.79417 9.83799 8.00323 12.0461 8.00323C14.2544 8.00323 16.0454 9.79417 16.0454 12.0025C16.0454 14.2108 14.2544 16.0017 12.0461 16.0017Z" fill="white"/>
<path d="M19.8944 5.59489C19.8944 6.38972 19.2499 7.03419 18.4549 7.03419C17.6601 7.03419 17.0156 6.38972 17.0156 5.59489C17.0156 4.79987 17.6601 4.15558 18.4549 4.15558C19.2499 4.15558 19.8944 4.79987 19.8944 5.59489Z" fill="white"/>
</g>
<defs>
<clipPath id="clip0_91_2491">
<rect width="24" height="24" fill="white"/>
</clipPath>
</defs>
</svg>
