<svg width="21" height="20" viewBox="0 0 21 20" fill="none" xmlns="http://www.w3.org/2000/svg">
<mask id="mask0_91_2434" style="mask-type:alpha" maskUnits="userSpaceOnUse" x="0" y="0" width="21" height="20">
<rect x="0.5" width="20" height="20" fill="black"/>
</mask>
<g mask="url(#mask0_91_2434)">
<path d="M6.37453 17.5417C6.22175 17.6667 6.05855 17.6737 5.88494 17.5625C5.71133 17.4514 5.65925 17.2987 5.72869 17.1042L7.29119 12L3.22869 9.08337C3.06203 8.97226 3.00994 8.81949 3.07244 8.62504C3.13494 8.4306 3.26342 8.33337 3.45786 8.33337H8.49953L10.1037 3.00004C10.1315 2.88893 10.1836 2.81254 10.2599 2.77087C10.3363 2.72921 10.4162 2.70837 10.4995 2.70837C10.5829 2.70837 10.6627 2.72921 10.7391 2.77087C10.8155 2.81254 10.8676 2.88893 10.8954 3.00004L12.4995 8.33337H17.5412C17.7356 8.33337 17.8641 8.4306 17.9266 8.62504C17.9891 8.81949 17.937 8.97226 17.7704 9.08337L13.7079 12L15.2704 17.1042C15.3398 17.2987 15.2877 17.4514 15.1141 17.5625C14.9405 17.6737 14.7773 17.6667 14.6245 17.5417L10.4995 14.4167L6.37453 17.5417Z" fill="#387FEB"/>
</g>
</svg>
