<svg width="148" height="148" viewBox="0 0 148 148" fill="none" xmlns="http://www.w3.org/2000/svg">
<mask id="mask0_91_2535" style="mask-type:alpha" maskUnits="userSpaceOnUse" x="0" y="0" width="148" height="148">
<rect width="148" height="148" fill="#D2E823"/>
</mask>
<g mask="url(#mask0_91_2535)">
<path d="M90.1734 134.545L75.1986 126.906C62.2742 120.367 51.4941 114.584 42.8582 109.556C34.2224 104.528 27.2122 99.8097 21.8278 95.4003C16.4434 90.9909 12.3318 86.666 9.49316 82.4256C6.6545 78.1853 4.55686 73.5336 3.20022 68.4705C0.300723 57.6495 1.47879 47.6511 6.73442 38.4754C11.99 29.2997 20.0284 23.2621 30.8494 20.3626C35.9125 19.006 40.9668 18.6093 46.0123 19.1727C51.0578 19.736 55.8826 21.2629 60.4869 23.7533C63.229 19.2944 66.6441 15.5596 70.7319 12.549C74.8198 9.53844 79.3953 7.35482 84.4583 5.99818C95.2794 3.09869 105.309 4.29492 114.548 9.58689C123.786 14.8789 129.856 22.9354 132.755 33.7564C134.085 38.7202 134.606 43.7412 134.317 48.8195C134.029 53.8978 132.624 59.6742 130.103 66.1488C127.581 72.6233 123.82 80.2281 118.819 88.9633C113.817 97.6984 107.319 108.191 99.3226 120.442L90.1734 134.545Z" fill="#D2E823"/>
<path d="M57.5941 68.8449C57.4636 69.1614 57.1062 69.3732 56.7816 69.4601C56.5849 69.5294 56.3745 69.4864 56.1642 69.4433C55.8993 69.3818 55.6743 69.1605 55.5154 68.9381C55.3884 68.7733 55.3655 68.5641 55.3116 68.3632C55.1719 67.9037 54.4194 65.1569 54.3106 64.6891C52.9691 64.9989 51.6264 65.2427 50.3128 65.5947C50.4453 66.0892 51.2163 68.7814 51.4107 69.2594C51.4954 69.452 51.5421 69.688 51.5341 69.9055C51.415 71.13 49.7972 71.3979 49.2352 70.2896C49.0781 69.9507 48.5431 68.1394 48.4478 67.784C48.1881 66.8763 46.7668 61.7577 46.4494 60.882C46.3398 60.5967 46.1951 60.3041 46.1628 59.9981C46.0256 58.9913 47.0883 58.2593 47.9547 58.7725C48.1352 58.8898 48.2931 59.0463 48.3891 59.2193C48.4769 59.3614 48.507 59.5356 48.5484 59.6901C48.6094 59.856 48.6818 60.0023 48.7386 60.1527C48.8813 60.5617 49.5376 62.8871 49.6607 63.2847C50.9898 62.9286 52.3479 62.6807 53.6894 62.3709C53.4617 61.5209 53.2226 60.6904 53.0257 59.8322C52.9429 59.5231 52.8951 59.2211 52.8278 58.9079C52.8142 58.7956 52.658 58.2742 52.6486 58.1774C52.6246 57.9022 52.7325 57.6248 52.8682 57.3897C52.97 57.2133 53.1544 57.0977 53.3429 56.9975C53.5736 56.8694 53.8879 56.868 54.1488 56.9141C54.4292 56.9714 54.65 57.1773 54.8244 57.3956C55.0618 57.6633 55.2818 58.9792 55.3575 59.3233C55.6402 60.4402 57.3682 66.9508 57.6972 68.0553C57.7831 68.3139 57.6948 68.6026 57.5941 68.8449ZM67.198 66.1887C66.9416 66.4065 66.5304 66.4173 66.1995 66.3569C66.0046 66.3097 65.82 66.177 65.6662 66.0359C65.4733 65.8723 65.3946 65.5787 65.3129 65.3355C65.0181 64.4207 64.681 63.5337 64.3089 62.6395C63.938 62.7389 63.595 62.8805 63.2323 63.0108C62.3989 63.3004 61.5376 63.5477 60.7248 63.9146C60.7856 64.7597 60.8814 65.6119 61.1009 66.431C61.2293 66.9101 61.0135 67.4648 60.6068 67.7395C60.4379 67.851 60.2173 67.8935 60.0277 67.9277C59.8227 67.9661 59.6041 67.8922 59.4164 67.81C59.1587 67.7134 58.9759 67.4642 58.8437 67.218C58.788 67.1336 58.6709 66.6349 58.6574 66.5226C58.2626 64.74 58.2428 62.8735 58.3519 61.0553C58.4103 59.9133 58.4997 58.763 58.8777 57.7009C59.1334 56.9864 59.5015 56.2583 60.0595 55.7444C60.354 55.4833 60.7547 55.3096 61.1392 55.3226C61.5082 55.3397 61.8752 55.4732 62.1816 55.6893C63.21 56.3745 64.014 57.3351 64.714 58.3402C66.0861 60.3081 66.9247 62.6343 67.6963 64.8957C67.7501 65.0966 67.7267 65.3182 67.6836 65.5285C67.6376 65.7893 67.4163 66.0143 67.198 66.1887ZM61.3249 58.0556C60.8489 59.0611 60.7791 60.2227 60.7279 61.3297C61.5572 61.0247 62.399 60.766 63.2283 60.461C62.7129 59.5886 62.0853 58.7298 61.3249 58.0556ZM71.1246 65.1366C70.8147 65.4018 70.2757 65.4303 69.9158 65.2617C69.6693 65.1455 69.4485 64.9397 69.3317 64.6894C69.2636 64.5585 69.0422 63.8559 68.9894 63.721C68.5685 62.4589 68.1516 61.2123 67.7657 59.9574C67.5401 59.2394 66.4563 55.2562 66.2925 54.5215C66.2376 54.2546 66.3413 53.9618 66.4771 53.7266C66.6427 53.4172 67.0083 53.2364 67.3412 53.1804C67.5421 53.1266 67.7565 53.185 67.9442 53.2673C68.2133 53.3443 68.4073 53.5739 68.555 53.8159C68.6707 54.0002 68.6864 54.2445 68.7403 54.4454C69.0355 54.0019 69.3854 53.5768 69.8066 53.2321C70.0671 53.0297 70.3472 52.8387 70.6676 52.7363C71.5361 52.4539 72.5752 52.6227 73.3745 53.0711C73.8014 53.3046 74.1605 53.6556 74.4043 54.0707C74.8752 54.839 74.9774 55.8386 74.8331 56.722C74.5589 58.4188 73.5354 60.101 72.1948 61.1559C71.8272 61.4532 71.4276 61.6928 71.0197 61.9015C71.0498 62.0756 71.2952 63.0534 71.3562 63.2193C71.4462 63.4933 71.5517 63.7632 71.6066 64.0301C71.6284 64.1733 71.5998 64.3135 71.5711 64.4537C71.5291 64.73 71.3233 64.9508 71.1246 65.1366ZM70.4248 56.5284C70.1806 57.4717 70.322 58.494 70.4777 59.4461C71.2068 58.9526 71.7687 58.2057 72.1202 57.4158C72.3937 56.829 72.7355 55.6939 72.2815 55.2358C72.1391 55.0752 71.6793 54.9665 71.4742 55.0048C71.3928 55.0101 71.2096 55.1917 71.1447 55.2588C70.805 55.5983 70.5489 56.0644 70.4248 56.5284ZM80.0745 62.7385C79.7646 63.0037 79.2256 63.0322 78.8657 62.8636C78.6192 62.7474 78.3984 62.5415 78.2816 62.2912C78.2135 62.1604 77.9921 61.4578 77.9393 61.3228C77.5184 60.0608 77.1015 58.8142 76.7156 57.5593C76.49 56.8412 75.4062 52.858 75.2425 52.1234C75.1875 51.8565 75.2913 51.5637 75.427 51.3285C75.5926 51.0191 75.9582 50.8383 76.2911 50.7823C76.492 50.7284 76.7064 50.7869 76.8941 50.8692C77.1632 50.9461 77.3572 51.1757 77.5049 51.4178C77.6206 51.6021 77.6363 51.8464 77.6902 52.0473C77.9854 51.6037 78.3353 51.1787 78.7565 50.8339C79.017 50.6316 79.2971 50.4406 79.6175 50.3382C80.486 50.0558 81.5251 50.2246 82.3244 50.673C82.7514 50.9065 83.1104 51.2575 83.3542 51.6725C83.8251 52.4408 83.9273 53.4405 83.783 54.3239C83.5088 56.0207 82.4853 57.7029 81.1447 58.7578C80.7771 59.0551 80.3775 59.2947 79.9696 59.5034C79.9997 59.6775 80.2451 60.6553 80.3061 60.8212C80.3961 61.0952 80.5016 61.3651 80.5565 61.632C80.5784 61.7752 80.5497 61.9154 80.521 62.0556C80.479 62.3319 80.2732 62.5527 80.0745 62.7385ZM79.3747 54.1303C79.1305 55.0736 79.2719 56.0958 79.4276 57.048C80.1568 56.5544 80.7186 55.8076 81.0701 55.0177C81.3436 54.4309 81.6854 53.2958 81.2314 52.8377C81.089 52.677 80.6292 52.5683 80.4241 52.6067C80.3427 52.612 80.1595 52.7936 80.0946 52.8607C79.7549 53.2002 79.4988 53.6663 79.3747 54.1303ZM90.7405 60.3774C89.8957 60.6866 88.3198 60.6782 87.7532 59.9852C87.1112 59.1965 87.689 58.0147 88.7021 58.0248C88.8845 58.0257 89.0526 58.0966 89.2124 58.1366C89.9104 58.3305 90.7971 57.7451 91.1241 57.1108C91.376 56.6292 91.4165 56.0386 91.419 55.4913C90.999 55.902 90.4697 56.2758 89.9009 56.3785C89.5413 56.4583 89.1692 56.4917 88.8187 56.42C88.3631 56.3267 87.9104 56.183 87.5257 55.9217C87.1213 55.649 86.7242 55.3413 86.396 54.982C85.3124 53.7816 84.5417 52.2654 83.9689 50.7459C83.8149 50.3565 83.6989 49.9237 83.7541 49.5114C83.7805 49.2393 83.9823 49.003 84.181 48.8173C84.3261 48.679 84.5425 48.621 84.7434 48.5672C85.0103 48.5122 85.299 48.6005 85.5496 48.7321C85.6826 48.7959 85.7621 48.9071 85.8684 48.9946C86.0149 49.1706 86.0812 49.4179 86.1237 49.6384C86.1455 49.7817 86.4246 50.4523 86.4928 50.5831C86.9847 51.6771 87.5395 52.8204 88.434 53.6243C88.6703 53.826 88.9457 54.0504 89.2642 54.0644C89.4621 54.0611 89.6299 53.8836 89.7555 53.734C90.0488 53.4069 90.2317 52.9769 90.3487 52.5481C90.5201 51.8893 90.4769 51.172 90.4112 50.4939C90.3413 49.8003 90.0622 49.1297 90.0078 48.432C89.9921 48.1878 90.0886 47.93 90.2327 47.7258C90.7821 46.9325 91.9882 47.1063 92.349 48.0201C92.5154 48.4558 92.5428 48.9289 92.6587 49.3616C93.0367 50.834 93.4497 52.3135 93.6844 53.8076C93.781 54.4774 93.8313 55.1597 93.8002 55.8472C93.7652 56.7676 93.5716 57.7139 93.0881 58.5061C92.5707 59.357 91.678 60.0434 90.7405 60.3774ZM53.5872 91.5599C52.8332 91.9607 51.9636 92.1772 51.1031 92.2421C50.7774 92.2631 50.4073 92.1801 50.1515 91.967C49.9348 91.7766 49.7593 91.4924 49.7311 91.2018C49.7228 91.1709 49.7236 90.9884 49.7153 90.9575C49.526 90.3126 48.4187 86.551 48.2489 85.9173C48.1205 85.4382 47.3955 82.4852 47.2517 82.0103C47.2434 81.9794 47.1824 81.8135 47.1587 81.7867C47.0573 81.5323 47.1064 81.221 47.203 80.9632C47.2841 80.7096 47.5096 80.5001 47.7516 80.3524C47.9247 80.2563 48.1493 80.2293 48.3626 80.2218C48.6265 80.2174 48.8967 80.3603 49.1092 80.5353C49.3568 80.7174 49.4747 81.0337 49.5575 81.3428C49.9319 80.7621 50.4353 80.2296 51.0513 79.9321C51.4788 79.7347 51.9383 79.595 52.4154 79.5831C53.075 79.572 53.7576 79.7701 54.3568 80.0899C55.0777 80.4931 55.6783 81.1272 56.1285 81.8183C56.4393 82.2982 56.6697 82.8493 56.8343 83.4015C57.0609 84.1856 57.1681 85.0182 57.0887 85.8346C56.9616 87.2766 56.4274 88.7449 55.5187 89.8663C54.9866 90.5389 54.337 91.1437 53.5872 91.5599ZM51.1672 83.8268C50.913 85.7832 51.339 87.8059 51.8596 89.6872C52.2728 89.56 52.6652 89.3554 52.9864 89.0706C54.2148 88.0292 54.8692 86.3299 54.6798 84.7574C54.6038 84.1648 54.4073 83.5549 54.0769 83.0637C53.8539 82.7259 53.569 82.4047 53.2163 82.201C53.0007 82.0766 52.7584 81.9759 52.51 81.9762C51.7185 81.9895 51.2745 83.0526 51.1672 83.8268ZM65.7363 87.6586C65.3042 88.2713 64.5977 88.7256 63.8672 88.9048C63.2716 89.0313 62.6429 89.0341 62.0542 88.8771C61.115 88.6484 60.2197 88.0269 59.6014 87.265C58.6467 86.1128 58.0369 84.7026 57.8764 83.2382C57.7419 81.9326 57.8351 80.5493 58.3582 79.349C58.6234 78.7313 59.0329 78.1578 59.5694 77.749C60.2706 77.2133 61.2092 76.9452 62.0863 76.9421C62.8511 76.9525 63.679 77.2607 64.1817 77.8383C64.3282 78.0144 64.4522 78.2297 64.6409 78.3778C64.7627 78.4612 64.8772 78.5796 64.9721 78.6866C65.4924 79.392 65.8747 80.2006 66.1643 81.0341C66.5977 82.3425 66.8818 83.7737 66.7031 85.1468C66.5939 86.0374 66.2518 86.9241 65.7363 87.6586ZM63.0832 86.5971C63.246 86.5866 63.4201 86.5565 63.5623 86.4687C63.7425 86.3376 63.8597 86.1571 63.977 85.9766C64.1539 85.6476 64.2411 85.293 64.3087 84.927C64.4265 84.3157 64.3381 83.6768 64.2229 83.0616C64.06 82.1445 63.7415 81.2029 63.2468 80.4078C63.1591 80.2657 63.0445 80.1473 62.9567 80.0052C62.9289 79.963 62.7525 79.8612 62.7246 79.8189C62.5905 79.6892 62.4986 79.5316 62.349 79.4061C62.2035 79.296 61.7738 79.3614 61.5884 79.4111C61.3565 79.4732 61.1175 79.5704 60.9415 79.717C60.7541 79.8831 60.6296 80.0987 60.5402 80.3214C60.2834 80.97 60.1874 81.7245 60.2109 82.4305C60.2554 83.4621 60.5607 84.5398 61.1688 85.3873C61.4826 85.8167 61.8779 86.2409 62.3821 86.4536C62.5936 86.5626 62.8389 86.6128 63.0832 86.5971ZM74.941 85.6394C74.3664 86.0915 73.5937 86.2986 72.8651 86.3613C72.1632 86.4003 71.4313 86.2651 70.7899 85.9732C70.1176 85.6895 69.5162 85.2378 69.026 84.7066C68.5079 84.1331 68.1237 83.441 67.8363 82.7394C67.2213 81.2478 67.0522 79.5041 67.4255 77.9299C67.5814 77.2752 67.8228 76.6308 68.186 76.0697C68.5306 75.5632 69.0083 75.1205 69.547 74.8436C70.7439 74.2413 72.1528 74.2448 73.3275 74.8577C73.6214 75.0274 73.7981 75.3776 73.8737 75.7217C73.9079 75.9113 73.8691 76.1371 73.8023 76.3206C73.7098 76.5939 73.4802 76.7879 73.2382 76.9356C73.0116 77.0791 72.7014 77.096 72.4406 77.0499C72.285 77.0253 72.1633 76.942 72.0148 76.8824C71.4951 76.6738 70.6244 76.8243 70.2786 77.2648C70.1345 77.469 70.0255 77.6804 69.9403 77.9186C69.6536 78.6415 69.5742 79.4578 69.6493 80.2328C69.7617 81.1468 70.072 82.0576 70.5934 82.8289C70.8123 83.1512 71.1394 83.4446 71.4766 83.6524C71.9469 83.9239 72.5232 84.0345 73.0569 83.9246C73.3547 83.8614 73.6307 83.6549 73.852 83.43C74.1834 83.0596 74.4116 82.5512 74.4574 82.042C74.4706 81.9059 74.4292 81.7514 74.392 81.6123C74.2416 81.6692 73.3421 81.9599 73.1917 82.0167C73.1031 82.057 72.6715 82.2389 72.5788 82.2638C72.3737 82.3022 72.1604 82.3096 71.9656 82.2625C71.646 82.1825 71.3581 81.9117 71.198 81.6233C71.0545 81.3968 71.0685 81.0783 71.1146 80.8175C71.1565 80.5412 71.3582 80.305 71.5611 80.1346C71.7793 79.9602 72.8137 79.6168 73.0878 79.5268C73.3463 79.4409 74.7897 78.9548 75.0524 78.8844C75.2575 78.846 75.478 78.8035 75.68 78.8156C76.5706 78.9249 77.0139 79.8993 76.5573 80.6677C76.8402 81.1054 76.8656 81.6949 76.8436 82.2309C76.8105 83.0348 76.4631 83.8402 76.0321 84.5188C75.7523 84.9582 75.3549 85.3297 74.941 85.6394ZM84.8266 82.9906C84.252 83.4427 83.4793 83.6498 82.7507 83.7125C82.0489 83.7514 81.317 83.6163 80.6755 83.3243C80.0032 83.0407 79.4018 82.5889 78.9116 82.0577C78.3935 81.4843 78.0093 80.7921 77.722 80.0906C77.1069 78.5989 76.9379 76.8553 77.3111 75.281C77.467 74.6264 77.7085 73.9819 78.0716 73.4208C78.4163 72.9144 78.894 72.4716 79.4327 72.1948C80.6296 71.5925 82.0385 71.5959 83.2131 72.2088C83.507 72.3785 83.6837 72.7287 83.7594 73.0729C83.7936 73.2625 83.7547 73.4882 83.6879 73.6718C83.5955 73.945 83.3659 74.139 83.1239 74.2867C82.8973 74.4302 82.5871 74.4471 82.3263 74.401C82.1706 74.3765 82.0489 74.2932 81.9004 74.2336C81.3807 74.025 80.51 74.1754 80.1642 74.6159C80.0202 74.8202 79.9112 75.0316 79.8259 75.2698C79.5392 75.9926 79.4598 76.809 79.535 77.5839C79.6474 78.498 79.9576 79.4087 80.4791 80.18C80.6979 80.5024 81.025 80.7957 81.3623 81.0035C81.8326 81.275 82.4088 81.3857 82.9426 81.2758C83.2404 81.2125 83.5163 81.0061 83.7377 80.7811C84.0691 80.4107 84.2973 79.9024 84.3431 79.3932C84.3563 79.2571 84.3149 79.1025 84.2776 78.9635C84.1272 79.0203 83.2278 79.311 83.0774 79.3679C82.9888 79.4082 82.5572 79.5901 82.4644 79.6149C82.2594 79.6533 82.0461 79.6608 81.8512 79.6136C81.5316 79.5336 81.2437 79.2629 81.0836 78.9745C80.9401 78.7479 80.9541 78.4294 81.0002 78.1686C81.0421 77.8924 81.2439 77.6561 81.4467 77.4858C81.665 77.3114 82.6994 76.9679 82.9734 76.8779C83.232 76.7921 84.6753 76.306 84.9381 76.2356C85.1431 76.1972 85.3636 76.1547 85.5657 76.1668C86.4563 76.276 86.8996 77.2505 86.4429 78.0188C86.7258 78.4565 86.7513 79.046 86.7292 79.582C86.6962 80.386 86.3488 81.1913 85.9178 81.87C85.6379 82.3094 85.2406 82.6809 84.8266 82.9906ZM94.9405 79.8333C94.5083 80.4461 93.8018 80.9004 93.0713 81.0796C92.4757 81.206 91.8471 81.2088 91.2584 81.0519C90.3192 80.8232 89.4238 80.2017 88.8055 79.4398C87.8508 78.2876 87.241 76.8774 87.0806 75.413C86.9461 74.1073 87.0392 72.7241 87.5624 71.5238C87.8276 70.9061 88.2371 70.3326 88.7735 69.9238C89.4748 69.3881 90.4134 69.12 91.2905 69.1169C92.0552 69.1273 92.8832 69.4355 93.3858 70.0131C93.5324 70.1892 93.6563 70.4044 93.8451 70.5526C93.9668 70.636 94.0814 70.7543 94.1763 70.8614C94.6966 71.5668 95.0789 72.3754 95.3685 73.2088C95.8019 74.5172 96.086 75.9485 95.9073 77.3215C95.7981 78.2121 95.4559 79.0989 94.9405 79.8333ZM92.2873 78.7719C92.4501 78.7614 92.6243 78.7313 92.7664 78.6435C92.9466 78.5124 93.0639 78.3319 93.1812 78.1514C93.3581 77.8224 93.4452 77.4677 93.5128 77.1018C93.6306 76.4905 93.5422 75.8516 93.4271 75.2364C93.2642 74.3193 92.9456 73.3777 92.451 72.5826C92.3632 72.4405 92.2487 72.3221 92.1609 72.18C92.133 72.1377 91.9567 72.0359 91.9288 71.9937C91.7946 71.864 91.7027 71.7064 91.5531 71.5809C91.4077 71.4708 90.978 71.5362 90.7925 71.5859C90.5607 71.648 90.3217 71.7452 90.1456 71.8917C89.9583 72.0579 89.8338 72.2735 89.7444 72.4962C89.4875 73.1448 89.3915 73.8993 89.4151 74.6053C89.4596 75.6369 89.7649 76.7146 90.373 77.5621C90.6868 77.9915 91.0821 78.4157 91.5863 78.6284C91.7977 78.7374 92.0431 78.7876 92.2873 78.7719ZM102.307 78.1246C101.351 78.5132 100.304 78.5619 99.3284 78.2601C98.8253 78.1133 98.3436 77.8613 97.9537 77.5186C97.7649 77.3704 97.6028 77.1985 97.5294 76.9863C97.1935 76.1652 97.8191 75.2853 98.7127 75.3441C98.9456 75.3479 99.2034 75.4445 99.3922 75.5927C99.9989 76.1258 100.916 76.2113 101.62 75.8075C101.793 75.7114 101.957 75.5844 102.114 75.4266C102.167 75.3791 102.308 75.2253 102.303 75.1439C102.269 74.9543 101.9 74.6889 101.743 74.5984C101.284 74.3072 100.749 74.1028 100.212 74.0148C99.6159 73.8928 98.9974 73.8101 98.4344 73.5634C97.9848 73.3692 97.5495 73.1048 97.1791 72.7734C95.9017 71.5917 95.6684 69.4843 96.6612 68.0588C96.8886 67.7328 97.1552 67.4295 97.4692 67.1797C97.8986 66.8659 98.3879 66.6519 98.9021 66.5307C99.6172 66.3557 100.415 66.4897 101.133 66.695C101.461 66.8059 101.797 66.9478 102.072 67.1721C102.285 67.3471 102.463 67.5808 102.569 67.8507C102.694 68.1319 102.642 68.4938 102.503 68.7794C102.33 69.1239 101.996 69.3623 101.617 69.4308C101.265 69.4756 100.836 69.3586 100.583 69.095C100.421 68.9231 99.8335 68.8321 99.5892 68.8478C99.1358 68.8865 98.798 69.1095 98.5913 69.5128C98.4073 69.8768 98.3924 70.3777 98.6041 70.7351C98.8004 71.0966 99.2077 71.3188 99.6057 71.444C100.214 71.6123 100.855 71.6559 101.456 71.8592C102.123 72.0615 102.769 72.3689 103.327 72.7825C103.798 73.12 104.221 73.5864 104.483 74.1292C104.64 74.4681 104.708 74.8473 104.695 75.2318C104.683 75.8646 104.375 76.5102 103.952 76.9714C103.503 77.4563 102.935 77.8734 102.307 78.1246Z" fill="#172027"/>
</g>
</svg>
