<svg width="15" height="16" viewBox="0 0 15 16" fill="none" xmlns="http://www.w3.org/2000/svg">
<path d="M3.37257 15.5438C3.2198 15.6688 3.0566 15.6757 2.88299 15.5646C2.70938 15.4535 2.6573 15.3007 2.72674 15.1063L4.28924 10.0021L0.22674 7.08545C0.0600734 6.97434 0.00799006 6.82156 0.0704901 6.62712C0.13299 6.43267 0.261462 6.33545 0.455907 6.33545H5.49757L7.10174 1.00212C7.12952 0.891005 7.1816 0.814616 7.25799 0.772949C7.33438 0.731283 7.41424 0.710449 7.49757 0.710449C7.58091 0.710449 7.66077 0.731283 7.73715 0.772949C7.81354 0.814616 7.86563 0.891005 7.8934 1.00212L9.49757 6.33545H14.5392C14.7337 6.33545 14.8622 6.43267 14.9247 6.62712C14.9872 6.82156 14.9351 6.97434 14.7684 7.08545L10.7059 10.0021L12.2684 15.1063C12.3378 15.3007 12.2858 15.4535 12.1122 15.5646C11.9385 15.6757 11.7753 15.6688 11.6226 15.5438L7.49757 12.4188L3.37257 15.5438Z" fill="#FFCD8F"/>
</svg>
