<svg width="20" height="18" viewBox="0 0 20 18" fill="none" xmlns="http://www.w3.org/2000/svg">
<path d="M0.882355 17.2727C0.632355 17.2727 0.422795 17.1625 0.253677 16.9421C0.0845591 16.7216 0 16.4485 0 16.1227C0 15.7968 0.0845591 15.5238 0.253677 15.3038C0.422795 15.0837 0.632355 14.9737 0.882355 14.9737H19.1176C19.3676 14.9737 19.5772 15.0839 19.7463 15.3043C19.9154 15.5247 20 15.7978 20 16.1237C20 16.4495 19.9154 16.7225 19.7463 16.9426C19.5772 17.1627 19.3676 17.2727 19.1176 17.2727H0.882355ZM0.882355 9.78588C0.632355 9.78588 0.422795 9.67567 0.253677 9.45527C0.0845591 9.23483 0 8.9617 0 8.63586C0 8.31 0.0845591 8.03704 0.253677 7.81696C0.422795 7.59689 0.632355 7.48685 0.882355 7.48685H19.1176C19.3676 7.48685 19.5772 7.59705 19.7463 7.81746C19.9154 8.03789 20 8.31103 20 8.63686C20 8.96272 19.9154 9.23569 19.7463 9.45576C19.5772 9.67584 19.3676 9.78588 19.1176 9.78588H0.882355ZM0.882355 2.29907C0.632355 2.29907 0.422795 2.18885 0.253677 1.96842C0.0845591 1.74801 0 1.47488 0 1.14902C0 0.823181 0.0845591 0.550226 0.253677 0.33015C0.422795 0.110049 0.632355 0 0.882355 0H19.1176C19.3676 0 19.5772 0.110215 19.7463 0.330649C19.9154 0.551082 20 0.824217 20 1.15005C20 1.47591 19.9154 1.74888 19.7463 1.96895C19.5772 2.18903 19.3676 2.29907 19.1176 2.29907H0.882355Z" fill="white"/>
</svg>
