<svg width="28" height="28" viewBox="0 0 28 28" fill="none" xmlns="http://www.w3.org/2000/svg">
<mask id="mask0_91_2251" style="mask-type:alpha" maskUnits="userSpaceOnUse" x="0" y="0" width="28" height="28">
<rect width="28" height="28" fill="#D9D9D9"/>
</mask>
<g mask="url(#mask0_91_2251)">
<path d="M5.85781 20.1607L5.92855 20.09L5.85781 20.1607C6.76929 21.0728 7.83757 21.7939 9.06178 22.3242C10.288 22.8553 11.6022 23.1206 13.0032 23.1206C14.2278 23.1206 15.3903 22.9136 16.4898 22.4993C17.5592 22.0963 18.5315 21.5381 19.4062 20.8249L23.4225 24.8262L23.4225 24.8263L23.4249 24.8286C23.618 25.0085 23.8471 25.1 24.1075 25.1C24.368 25.1 24.597 25.0085 24.7902 24.8286L24.7902 24.8286L24.7927 24.8261C24.9841 24.6346 25.0882 24.4083 25.0991 24.1504C25.1102 23.8893 25.0154 23.6596 24.8221 23.4663L20.7943 19.4357C21.5071 18.5605 22.0678 17.5878 22.4764 16.5179C22.8966 15.4173 23.1065 14.2478 23.1065 13.0103C23.1065 11.6202 22.8414 10.3112 22.3107 9.08426C21.7807 7.85913 21.0571 6.7871 20.1396 5.86899L20.0689 5.93968L20.1396 5.86899C19.2221 4.9509 18.1509 4.22669 16.9266 3.6964C15.7005 3.1653 14.3924 2.9 13.0032 2.9C11.6022 2.9 10.288 3.16526 9.06178 3.6964C7.83743 4.22672 6.76908 4.95099 5.85757 5.86923L5.85757 5.86923C4.94625 6.78732 4.22567 7.85927 3.69583 9.08426C3.16511 10.3112 2.9 11.6202 2.9 13.0103C2.9 14.4123 3.16506 15.7274 3.69583 16.9545C4.2257 18.1795 4.94635 19.2485 5.85781 20.1607ZM18.7581 18.7781C17.1685 20.3628 15.2521 21.1541 13.0032 21.1541C10.7422 21.1541 8.82288 20.3627 7.23948 18.7782C5.6561 17.1937 4.86525 15.273 4.86525 13.0103C4.86525 10.7598 5.656 8.84201 7.23961 7.2513C8.82304 5.6608 10.7423 4.8665 13.0032 4.8665C15.252 4.8665 17.1683 5.6607 18.7579 7.25144C20.3476 8.84217 21.1412 10.7599 21.1412 13.0103C21.1412 15.2729 20.3475 17.1935 18.7581 18.7781Z" fill="white" stroke="white" stroke-width="0.2"/>
</g>
</svg>
