<svg width="28" height="28" viewBox="0 0 28 28" fill="none" xmlns="http://www.w3.org/2000/svg">
<mask id="mask0_91_2369" style="mask-type:alpha" maskUnits="userSpaceOnUse" x="0" y="0" width="28" height="28">
<rect width="28" height="28" fill="#3D858A"/>
</mask>
<g mask="url(#mask0_91_2369)">
<path d="M10.1148 24.0512L8.58024 21.4845L5.686 20.8743C5.45417 20.8309 5.26944 20.7064 5.13184 20.5007C4.99423 20.295 4.93739 20.0763 4.96133 19.8445L5.23727 16.8627L3.27412 14.6236C3.1096 14.4546 3.02734 14.2467 3.02734 13.9999C3.02734 13.7531 3.1096 13.5452 3.27412 13.3762L5.23727 11.1371L4.96133 8.15534C4.93739 7.9235 4.99423 7.70475 5.13184 7.49909C5.26944 7.29343 5.45417 7.1689 5.686 7.12552L8.58024 6.51527L10.1148 3.9486C10.2405 3.7407 10.4095 3.59675 10.6219 3.51673C10.8343 3.4367 11.0542 3.44754 11.2815 3.54925L14.0007 4.69798L16.72 3.54925C16.9473 3.44754 17.1672 3.4367 17.3796 3.51673C17.592 3.59675 17.761 3.7407 17.8867 3.9486L19.4213 6.51527L22.3155 7.12552C22.5473 7.1689 22.7321 7.29343 22.8697 7.49909C23.0073 7.70475 23.0641 7.9235 23.0402 8.15534L22.7642 11.1371L24.7274 13.3762C24.8919 13.5452 24.9742 13.7531 24.9742 13.9999C24.9742 14.2467 24.8919 14.4546 24.7274 14.6236L22.7642 16.8627L23.0402 19.8445C23.0641 20.0763 23.0073 20.295 22.8697 20.5007C22.7321 20.7064 22.5473 20.8309 22.3155 20.8743L19.4213 21.4845L17.8867 24.0512C17.761 24.2591 17.592 24.4031 17.3796 24.4831C17.1672 24.5631 16.9473 24.5523 16.72 24.4506L14.0007 23.3018L11.2815 24.4506C11.0542 24.5523 10.8343 24.5631 10.6219 24.4831C10.4095 24.4031 10.2405 24.2591 10.1148 24.0512ZM12.7757 15.6691L10.6802 13.5803C10.5711 13.4712 10.4383 13.4128 10.282 13.4053C10.1257 13.3979 9.98322 13.4585 9.85459 13.5871C9.73044 13.7112 9.66836 13.8488 9.66836 13.9999C9.66836 14.151 9.73044 14.2886 9.85459 14.4127L12.1161 16.6743C12.3046 16.8627 12.5245 16.957 12.7757 16.957C13.027 16.957 13.2469 16.8627 13.4354 16.6743L18.1469 11.9627C18.2606 11.8491 18.32 11.7152 18.3253 11.5611C18.3305 11.4071 18.2711 11.2657 18.1469 11.1371C18.0183 11.0085 17.8796 10.943 17.7307 10.9408C17.5819 10.9385 17.4432 11.0017 17.3145 11.1303L12.7757 15.6691Z" fill="#D2E823"/>
</g>
</svg>
