<svg width="28" height="28" viewBox="0 0 28 28" fill="none" xmlns="http://www.w3.org/2000/svg">
<mask id="mask0_91_2255" style="mask-type:alpha" maskUnits="userSpaceOnUse" x="0" y="0" width="28" height="28">
<rect width="28" height="28" fill="#D9D9D9"/>
</mask>
<g mask="url(#mask0_91_2255)">
<path d="M7.35898 25.0831C6.76966 25.0831 6.27083 24.8789 5.8625 24.4706C5.45417 24.0623 5.25 23.5635 5.25 22.9741V9.69216C5.25 9.10283 5.45417 8.604 5.8625 8.19567C6.27083 7.78734 6.76966 7.58317 7.35898 7.58317H9.625V7.2915C9.625 6.08295 10.052 5.05165 10.9061 4.19759C11.7601 3.34353 12.7914 2.9165 14 2.9165C15.2085 2.9165 16.2398 3.34353 17.0939 4.19759C17.9479 5.05165 18.3749 6.08295 18.3749 7.2915V7.58317H20.641C21.2303 7.58317 21.7291 7.78734 22.1374 8.19567C22.5458 8.604 22.7499 9.10283 22.7499 9.69216V22.9741C22.7499 23.5635 22.5458 24.0623 22.1374 24.4706C21.7291 24.8789 21.2303 25.0831 20.641 25.0831H7.35898ZM7.35898 23.3331H20.641C20.7307 23.3331 20.813 23.2958 20.8878 23.221C20.9626 23.1462 21 23.0639 21 22.9741V9.69216C21 9.6024 20.9626 9.52012 20.8878 9.44532C20.813 9.37053 20.7307 9.33314 20.641 9.33314H18.3749V11.9582C18.3749 12.2065 18.2912 12.4144 18.1237 12.5819C17.9562 12.7494 17.7483 12.8331 17.5 12.8331C17.2517 12.8331 17.0438 12.7494 16.8763 12.5819C16.7088 12.4144 16.625 12.2065 16.625 11.9582V9.33314H11.3749V11.9582C11.3749 12.2065 11.2912 12.4144 11.1237 12.5819C10.9562 12.7494 10.7483 12.8331 10.5 12.8331C10.2517 12.8331 10.0438 12.7494 9.87627 12.5819C9.70876 12.4144 9.625 12.2065 9.625 11.9582V9.33314H7.35898C7.26923 9.33314 7.18695 9.37053 7.11215 9.44532C7.03736 9.52012 6.99997 9.6024 6.99997 9.69216V22.9741C6.99997 23.0639 7.03736 23.1462 7.11215 23.221C7.18695 23.2958 7.26923 23.3331 7.35898 23.3331ZM11.3749 7.58317H16.625V7.2915C16.625 6.56008 16.3703 5.93973 15.861 5.43044C15.3517 4.92113 14.7314 4.66648 14 4.66648C13.2685 4.66648 12.6482 4.92113 12.1389 5.43044C11.6296 5.93973 11.3749 6.56008 11.3749 7.2915V7.58317Z" fill="white"/>
</g>
</svg>
