<svg width="64" height="64" viewBox="0 0 64 64" fill="none" xmlns="http://www.w3.org/2000/svg">
<path d="M59.751 30.5825H51.4835C49.9073 30.5825 48.4124 31.2826 47.4033 32.4935L45.2771 35.0449C44.268 36.2559 42.7732 36.956 41.197 36.956H22.803C21.2267 36.956 19.7319 36.2559 18.7229 35.0449L16.5968 32.4935C15.5876 31.2826 14.0929 30.5825 12.5165 30.5825H4.249C1.90237 30.5825 0 32.4848 0 34.8315V44.3916C0 49.0849 3.80463 52.8895 8.49788 52.8895H55.502C60.1952 52.8895 63.9999 49.0849 63.9999 44.3916V34.8315C64 32.4848 62.0976 30.5825 59.751 30.5825Z" fill="#387FEB"/>
<path d="M46 22.709C44.3529 22.709 42.9277 23.4634 42.9141 23.4711C42.346 23.7882 41.654 23.7882 41.0859 23.4711C41.0809 23.4685 39.664 22.709 38 22.709H36C34.3529 22.709 32.9277 23.4634 32.9141 23.4711C32.346 23.7882 31.654 23.7882 31.0859 23.4711C31.0809 23.4685 29.6641 22.709 28 22.709H26C24.3529 22.709 22.9278 23.4634 22.9141 23.4711C22.346 23.7882 21.654 23.7882 21.0859 23.4711C21.0809 23.4685 19.6641 22.709 18 22.709H17C15.2769 22.709 13.875 24.1109 13.875 25.834V26.9364C16.0526 27.2646 18.0445 28.3729 19.4775 30.0926L21.6035 32.6437C21.901 33.0009 22.3383 33.2056 22.8029 33.2056H41.1969C41.6615 33.2056 42.0987 33.0007 42.3964 32.6437L44.5224 30.0925C45.9554 28.3729 47.9473 27.2646 50.1249 26.9364V25.834C50.1249 24.1109 48.723 22.709 46.9999 22.709H46Z" fill="#387FEB"/>
<path d="M10.125 25.8342C10.125 22.0433 13.2091 18.9592 17 18.9592H18C19.669 18.9592 21.1126 19.4097 22 19.7696C22.8874 19.4096 24.331 18.9592 26 18.9592H28C29.669 18.9592 31.1126 19.4097 32 19.7696C32.8874 19.4096 34.331 18.9592 36 18.9592H38C39.669 18.9592 41.1126 19.4097 42 19.7696C42.8874 19.4096 44.331 18.9592 46 18.9592H47C50.7909 18.9592 53.875 22.0433 53.875 25.8342V26.8322H60.875V22.9858C60.875 16.438 55.5479 11.1108 49 11.1108H15C8.45213 11.1108 3.125 16.438 3.125 22.9858V26.8322H10.125V25.8342Z" fill="#387FEB"/>
</svg>
