<svg width="64" height="64" viewBox="0 0 64 64" fill="none" xmlns="http://www.w3.org/2000/svg">
<g clip-path="url(#clip0_91_2351)">
<path d="M11.3893 13.3914C7.77662 19.1026 6.81793 25.8692 8.29989 32.0565C8.70356 32.0203 9.10599 32.0015 9.50716 32.0015C14.0513 32.0015 16.8382 33.9037 18.6504 35.7908C21.1912 33.325 22.6296 29.9507 22.6296 26.3776C22.6296 19.6219 17.6033 14.2711 11.3893 13.3914ZM50.1156 10.0908C45.6527 5.13047 39.1852 2.00732 32.0028 2.00732C24.8267 2.00732 18.3642 5.12547 13.9013 10.0783C21.0382 11.9974 26.3789 18.5045 26.3789 26.3776C26.3789 31.093 24.4305 35.5396 21.0012 38.729C21.3699 39.2039 21.6573 39.5001 21.9135 39.5001H42.0921C42.3483 39.5001 42.6383 39.2001 43.0082 38.7215C39.6988 35.6396 37.6267 31.2454 37.6267 26.3776C37.6267 18.7016 42.7896 12.0516 50.1156 10.0908ZM52.6201 13.3976C46.0873 14.3391 41.376 19.9299 41.376 26.3776C41.376 30.0656 42.9045 33.4025 45.3627 35.787C47.1761 33.8999 49.9631 32.0015 54.4985 32.0015C54.8996 32.0015 55.3021 32.0203 55.7057 32.0565C57.1804 25.8993 56.2463 19.1343 52.6201 13.3976Z" fill="#387FEB"/>
<path d="M9.47409 61.9927C2.8335 61.993 -1.99507 55.1301 0.817014 48.8734C-1.72237 43.2234 1.97667 36.865 7.91939 35.8823C11.9762 35.2113 15.7316 37.1691 17.6196 40.4292C18.6587 42.2212 20.2236 43.2495 21.9126 43.2495H42.0913C43.7802 43.2495 45.345 42.2212 46.3847 40.4283C48.2716 37.1701 52.0266 35.2112 56.0845 35.8823C62.0438 36.8678 65.7227 43.2313 63.1868 48.8734C65.7205 54.5104 62.0439 60.8765 56.0866 61.8644C52.1148 62.5218 48.1487 60.6078 46.2382 57.058C45.4019 55.5022 43.5526 54.4974 41.5264 54.4974H22.4788C20.4527 54.4974 18.6027 55.5024 17.7659 57.0577C16.1118 60.131 12.9041 61.9924 9.47409 61.9927Z" fill="#387FEB"/>
</g>
<defs>
<clipPath id="clip0_91_2351">
<rect width="64" height="64" fill="white"/>
</clipPath>
</defs>
</svg>
