<svg width="64" height="64" viewBox="0 0 64 64" fill="none" xmlns="http://www.w3.org/2000/svg">
<g clip-path="url(#clip0_91_2358)">
<path d="M26.1074 57.5519V60.1166C26.1074 61.1521 26.9469 61.9916 27.9824 61.9916H36.0158C37.0513 61.9916 37.8908 61.1521 37.8908 60.1166V57.5518C34.0468 58.4595 29.9515 58.4595 26.1074 57.5519Z" fill="#387FEB"/>
<path d="M26.1086 10.0417V14.0959C30.0123 14.3758 33.9882 14.3759 37.892 14.0959V10.0417H48.012L56.0453 2.0083H7.95508L15.9885 10.0417H26.1086Z" fill="#387FEB"/>
<path d="M14.5344 13.8911L3.20075 2.55761C2.6645 2.02124 1.85787 1.86086 1.15737 2.15111C0.456875 2.44136 0 3.12499 0 3.88336V15.9334C0 16.4307 0.197625 16.9075 0.54925 17.2591L7.62838 24.3382C8.813 20.8186 10.7764 17.5505 13.3445 14.8417C13.6976 14.4694 14.0995 14.1514 14.5344 13.8911Z" fill="#387FEB"/>
<path d="M62.8417 2.15111C62.1412 1.86086 61.3346 2.02124 60.7983 2.55761L49.4648 13.8911C49.8997 14.1514 50.3016 14.4694 50.6547 14.8417C53.2223 17.55 55.1857 20.818 56.3708 24.3384L63.4501 17.2592C63.8017 16.9076 63.9993 16.4307 63.9993 15.9335V3.88349C63.9992 3.12499 63.5423 2.44136 62.8417 2.15111Z" fill="#387FEB"/>
<path d="M47.9352 17.422C47.5047 16.9678 46.8756 16.7583 46.2594 16.8637C36.9321 18.4538 27.0711 18.4538 17.7426 16.8637C17.1259 16.7583 16.4973 16.968 16.0668 17.422C13.6939 19.9248 11.9241 22.9845 10.9487 26.27C10.7706 26.8698 10.9034 27.5192 11.3031 28.0008C17.3486 35.2877 22.2822 43.8328 25.5703 52.7126C25.7878 53.3001 26.2843 53.7401 26.8937 53.8853C30.2218 54.6825 33.7801 54.6823 37.1082 53.8853C37.7176 53.7401 38.2141 53.3 38.4316 52.7126C41.7198 43.8328 46.6532 35.2877 52.6988 28.0008C53.0984 27.5191 53.2314 26.8698 53.0532 26.2698C52.0773 22.9838 50.3076 19.9242 47.9352 17.422ZM32.0009 39.4241C28.1986 39.4241 25.1051 36.3306 25.1051 32.5282C25.4517 23.3925 38.5514 23.3951 38.8968 32.5283C38.8968 36.3306 35.8033 39.4241 32.0009 39.4241Z" fill="#387FEB"/>
<path d="M31.9994 29.3823C30.2648 29.3823 28.8535 30.7936 28.8535 32.5281C29.0116 36.6957 34.9876 36.6946 35.1453 32.5281C35.1453 30.7936 33.734 29.3823 31.9994 29.3823Z" fill="#387FEB"/>
</g>
<defs>
<clipPath id="clip0_91_2358">
<rect width="64" height="64" fill="white"/>
</clipPath>
</defs>
</svg>
