<svg width="64" height="64" viewBox="0 0 64 64" fill="none" xmlns="http://www.w3.org/2000/svg">
<g clip-path="url(#clip0_91_2335)">
<path d="M9.69531 31.3291C7.85781 31.3291 6.06856 30.3763 5.08569 28.6738C4.19944 27.1388 4.16156 25.279 4.91331 23.7216C3.18856 23.594 1.59706 22.6312 0.710688 21.0961C-0.753937 18.5592 0.118313 15.3037 2.65519 13.8391C3.88419 13.1297 5.31581 12.941 6.68644 13.3083C7.75019 13.5933 8.67844 14.1867 9.37244 15.0126L23.0468 7.11772C22.1896 4.74472 23.1284 2.01872 25.3883 0.714093C26.6173 0.00459307 28.0489 -0.184032 29.4196 0.183343C30.7902 0.550593 31.9358 1.42972 32.6453 2.65859C33.5316 4.19359 33.5694 6.05347 32.8178 7.61084C34.5426 7.73847 36.1341 8.70122 37.0203 10.2363C37.7298 11.4652 37.9183 12.897 37.5511 14.2676C37.1838 15.6382 36.3047 16.7838 35.0758 17.4933C32.8158 18.7981 29.9857 18.2482 28.3593 16.3193L14.6842 24.2147C15.5414 26.5877 14.6026 29.3137 12.3427 30.6183C11.5082 31.1002 10.5959 31.3291 9.69531 31.3291Z" fill="#387FEB"/>
<path d="M61.0051 51.6875C58.5939 51.6875 56.3821 50.59 54.9375 48.746C53.4929 50.59 51.2811 51.6875 48.8699 51.6875C47.9078 51.6875 47.125 50.9048 47.125 49.9427V47.0061C47.125 44.7775 48.3154 42.7454 50.1828 41.6353C48.082 38.6204 45.875 34.3083 45.875 29.5C45.875 21.8924 51.2787 15.5938 53.6021 13.2389C53.9576 12.8787 54.4319 12.6802 54.9375 12.6802C55.4431 12.6802 55.9174 12.8787 56.2729 13.2389C58.5963 15.5938 64 21.8924 64 29.5C64 34.3083 61.793 38.6204 59.6922 41.6353C61.5596 42.7453 62.75 44.7775 62.75 47.0061V49.9427C62.75 50.9048 61.9672 51.6875 61.0051 51.6875Z" fill="#387FEB"/>
<path d="M25.7508 63.9999C22.3927 63.9999 20.0023 63.5542 18.228 62.597C15.788 61.2806 14.5508 59.0488 14.5508 55.9638C14.5508 49.788 19.5752 44.7637 25.7508 44.7637C31.9264 44.7637 36.9508 49.788 36.9508 55.9638C36.9508 59.0488 35.7135 61.2806 33.2735 62.597C31.4993 63.5542 29.1089 63.9999 25.7508 63.9999Z" fill="#387FEB"/>
<path d="M13.7709 45.007C11.4159 45.007 9.5 43.0911 9.5 40.7362C9.5 38.3812 11.4159 36.4653 13.7709 36.4653C16.1259 36.4653 18.0416 38.3812 18.0416 40.7362C18.0416 43.0911 16.1258 45.007 13.7709 45.007Z" fill="#387FEB"/>
<path d="M37.7297 45.007C35.3747 45.007 33.459 43.0911 33.459 40.7362C33.459 38.3812 35.3749 36.4653 37.7297 36.4653C40.0847 36.4653 42.0006 38.3812 42.0006 40.7362C42.0006 43.0911 40.0847 45.007 37.7297 45.007Z" fill="#387FEB"/>
<path d="M25.7494 41.0138C23.3944 41.0138 21.4785 39.0979 21.4785 36.743C21.4785 34.3882 23.3944 32.4722 25.7494 32.4722C28.1044 32.4722 30.0203 34.388 30.0203 36.743C30.0203 39.098 28.1044 41.0138 25.7494 41.0138Z" fill="#387FEB"/>
</g>
<defs>
<clipPath id="clip0_91_2335">
<rect width="64" height="64" fill="white"/>
</clipPath>
</defs>
</svg>
