<svg width="1440" height="203" viewBox="0 0 1440 203" fill="none" xmlns="http://www.w3.org/2000/svg">
<rect width="1440" height="203" fill="#387FEB"/>
<mask id="mask0_87_4" style="mask-type:alpha" maskUnits="userSpaceOnUse" x="0" y="0" width="1440" height="203">
<rect width="1440" height="203" fill="#387FEB"/>
</mask>
<g mask="url(#mask0_87_4)">
<path opacity="0.1" d="M1378.23 203.564C1374.65 165.739 1380.44 130.808 1396.28 97.7764C1435.65 15.9411 1522.48 7.10005 1578.31 79.1985C1614.75 126.175 1627.39 179.035 1618.08 237.449C1613.3 267.77 1605.84 297.608 1595.79 326.612C1579.82 372.553 1563.01 418.215 1550.33 465.281C1541.56 497.817 1540.48 496.497 1506.49 492.239C1450.04 485.127 1394.54 471.886 1340.97 452.751C1287.56 433.772 1231.85 416.631 1193.79 371.059C1159 329.424 1131.15 283.846 1152.82 225.658C1171.91 174.381 1215.67 149.137 1269.69 156.908C1309.27 162.625 1342.82 182.151 1378.23 203.564ZM1455.04 73.3723C1447 76.4921 1441.94 82.8418 1437.07 89.5655C1407.57 130.297 1400.33 175.203 1412.66 223.375C1415.22 233.361 1418.56 242.953 1408.96 249.733C1398.87 256.857 1389.15 252.103 1380.25 245.41C1376.6 242.936 1372.8 240.685 1368.87 238.669C1336.69 212.835 1301.33 193.3 1259.78 188.355C1236.24 185.572 1213.71 188.822 1199.7 211.941C1180.3 230.512 1174.06 253.488 1179.59 279.025C1190.26 329.13 1221.59 363.959 1265.75 387.035C1338.4 424.997 1415.92 448.638 1496.87 461.145C1512.45 470.169 1518.08 463.611 1522.5 447.853C1531.54 415.545 1542.63 383.799 1553.41 352.009C1571.17 299.693 1590.01 247.691 1588.61 191.141C1587.16 136.443 1553.68 83.1964 1509.09 66.2705C1489.81 58.8936 1471.56 59.5329 1455.04 73.3723Z" fill="white"/>
<path opacity="0.1" d="M216.819 249.967C219.422 222.44 215.213 197.02 203.68 172.982C175.028 113.427 111.839 106.993 71.2103 159.462C44.6953 193.648 35.4942 232.117 42.2696 274.626C45.75 296.692 51.1798 318.407 58.4953 339.514C70.1123 372.947 82.3487 406.176 91.5733 440.428C97.955 464.106 98.7461 463.145 123.481 460.046C164.557 454.871 204.947 445.235 243.935 431.309C282.799 417.498 323.342 405.024 351.039 371.86C376.358 341.56 396.63 308.391 380.856 266.046C366.963 228.73 335.118 210.359 295.81 216.014C267.006 220.175 242.59 234.384 216.819 249.967ZM160.924 155.222C166.775 157.493 170.456 162.113 173.995 167.006C195.464 196.648 200.739 229.328 191.765 264.384C189.903 271.652 187.467 278.632 194.452 283.566C201.795 288.75 208.872 285.291 215.346 280.42C218.005 278.62 220.77 276.982 223.627 275.515C247.047 256.714 272.782 242.498 303.018 238.899C320.149 236.874 336.547 239.239 346.737 256.064C360.862 269.578 365.398 286.299 361.372 304.883C353.609 341.346 330.81 366.692 298.671 383.486C245.806 411.112 189.391 428.316 130.477 437.418C119.14 443.985 115.044 439.213 111.831 427.746C105.25 404.234 97.1777 381.131 89.3311 357.996C76.4057 319.924 62.6989 282.08 63.7196 240.926C64.774 201.121 89.1395 162.371 121.589 150.054C135.615 144.685 148.902 145.151 160.924 155.222Z" fill="white"/>
</g>
</svg>
