<svg width="64" height="64" viewBox="0 0 64 64" fill="none" xmlns="http://www.w3.org/2000/svg">
<path d="M31.7299 4.46855C31.3021 4.01105 30.6731 3.79792 30.0549 3.90017C29.4366 4.0023 28.9102 4.40642 28.652 4.9773L11.7334 41.7127C10.9754 41.5142 10.1944 41.375 9.375 41.375C4.20587 41.375 0 45.5809 0 50.75C0 55.9192 4.20587 60.125 9.375 60.125C14.5441 60.125 18.75 55.9192 18.75 50.75C18.75 49.2077 18.3399 47.7728 17.677 46.488L32.9544 12.9452C34.3991 10.0555 33.8097 6.69305 31.7299 4.46855ZM9.375 56.375C6.27325 56.375 3.75 53.8518 3.75 50.75C3.75 47.6483 6.27325 45.125 9.375 45.125C12.4767 45.125 15 47.6483 15 50.75C15 53.8518 12.4767 56.375 9.375 56.375Z" fill="#387FEB"/>
<path d="M31.875 41.3748C31.0556 41.3748 30.2746 41.5139 29.5166 41.7124L26.7286 35.6587L22.6852 44.5379L23.5731 46.4876C22.9101 47.7723 22.5 49.2074 22.5 50.7498C22.5 55.9189 26.7059 60.1248 31.875 60.1248C37.0441 60.1248 41.25 55.9189 41.25 50.7498C41.25 45.5807 37.0441 41.3748 31.875 41.3748ZM31.875 56.3748C28.7733 56.3748 26.25 53.8516 26.25 50.7498C26.25 47.6481 28.7733 45.1248 31.875 45.1248C34.9767 45.1248 37.5 47.6481 37.5 50.7498C37.5 53.8516 34.9767 56.3748 31.875 56.3748Z" fill="#387FEB"/>
<path d="M58.3749 3.875C56.7257 3.875 56.1279 3.875 55.9361 3.875C55.8772 3.875 55.8564 3.875 55.8554 3.875C55.5057 3.875 53.8092 3.875 46.875 3.875C45.8386 3.875 45 4.71362 45 5.75C45 6.78638 45.8386 7.625 46.875 7.625H52.75V11.375H46.875C45.8386 11.375 45 12.2136 45 13.25C45 14.2864 45.8386 15.125 46.875 15.125H52.75V18.875H46.875C45.8386 18.875 45 19.7136 45 20.75C45 21.7864 45.8386 22.625 46.875 22.625H52.75V26.375H46.875C45.8386 26.375 45 27.2136 45 28.25C45 29.2864 45.8386 30.125 46.875 30.125H52.75V33.875H46.875C45.8386 33.875 45 34.7136 45 35.75C45 36.7864 45.8386 37.625 46.875 37.625H52.75V41.375H46.875C45.8386 41.375 45 42.2136 45 43.25C45 44.2864 45.8386 45.125 46.875 45.125H52.75V48.875H46.875C45.8386 48.875 45 49.7136 45 50.75C45 51.7864 45.8386 52.625 46.875 52.625H52.75V56.375H46.875C45.8386 56.375 45 57.2136 45 58.25C45 59.2864 45.8386 60.125 46.875 60.125C53.7984 60.125 55.5019 60.125 55.8551 60.125C55.9173 60.125 55.9376 60.125 55.9372 60.125C56.1307 60.125 56.7302 60.125 58.3749 60.125C61.4766 60.125 63.9999 57.6017 63.9999 54.5V9.5C63.9999 6.39825 61.4766 3.875 58.3749 3.875Z" fill="#387FEB"/>
<path d="M12.5982 4.97718C12.34 4.40643 11.8136 4.00218 11.1954 3.90018C10.5771 3.79793 9.94825 4.01093 9.52037 4.46856C7.4405 6.69306 6.85112 10.0556 8.29587 12.9452L14.54 26.6548L18.561 17.9243L12.5982 4.97718Z" fill="#387FEB"/>
</svg>
