<svg width="51" height="55" viewBox="0 0 51 55" fill="none" xmlns="http://www.w3.org/2000/svg">
<path d="M38.4039 42.4596C38.4039 42.4596 37.7163 51.3966 36.3782 53.7984C36.295 53.9472 34.8364 54.1865 34.9875 53.5785C35.1386 52.9705 36.0672 53.4966 35.984 52.1296C35.8986 50.7605 36.2928 44.7925 35.3533 42.4402L38.4039 42.4617V42.4596Z" fill="#D2E823"/>
<path d="M42.5155 35.3333C42.7258 35.1091 43.1857 35.0595 43.4682 34.943C43.8602 34.7835 44.2369 34.5894 44.5851 34.3523C45.472 33.7507 46.1706 32.8365 46.3042 31.7628C46.4291 30.7559 46.7203 29.6865 47.3992 28.8974C47.4036 28.8931 47.408 28.8909 47.4124 28.8866C47.4124 28.8844 47.4146 28.8823 47.4189 28.8801C47.8088 28.5416 48.4877 28.4812 48.9629 28.6494C49.644 28.8909 49.909 29.5313 49.9812 30.1953C50.0973 31.2906 49.7491 32.3816 49.0702 33.2527C47.9161 34.7317 46.0568 35.536 44.2894 36.0513C43.812 36.1914 43.1616 36.5062 42.6951 36.2044C42.4017 36.0125 42.2549 35.6157 42.5177 35.3355L42.5155 35.3333Z" fill="#D2E823"/>
<path d="M12.6513 0.00809316C13.0346 0.174112 13.3806 0.45656 13.685 0.730384C14.526 1.48502 15.1545 2.4337 15.6429 3.43843C15.6867 3.52683 15.3385 3.69285 15.2969 3.60445C14.8041 2.59109 14.169 1.62516 13.3127 0.872686C13.0215 0.618267 12.6951 0.355224 12.3338 0.199985C12.2615 0.167644 12.5484 -0.0371848 12.6513 0.00593707V0.00809316Z" fill="#D2E823"/>
<path d="M11.8451 0.691663C13.1218 1.26734 14.4906 2.27855 14.9395 3.63473C15.003 3.82662 14.6724 4.00342 14.6001 3.7835C14.1818 2.51572 12.8634 1.56272 11.6721 1.02801C11.4684 0.937458 11.6567 0.607576 11.8451 0.691663Z" fill="#D2E823"/>
<path d="M11.6115 1.66211C12.5597 2.03296 14.0993 2.7919 14.1672 3.93679C14.1737 4.03597 13.8233 4.12868 13.8212 4.10496C13.7533 2.96008 12.2356 2.21407 11.2873 1.84538C11.2589 1.8346 11.5173 1.62546 11.6093 1.66211H11.6115Z" fill="#D2E823"/>
<path d="M11.2801 2.35386C12.016 2.55438 13.6103 3.04597 13.5205 4.01837C13.5096 4.12833 13.2621 4.40215 13.2796 4.19732C13.3322 3.63458 12.5832 3.27451 12.154 3.07615C11.8167 2.91876 11.4619 2.78724 11.1006 2.68806C10.9933 2.65787 11.1466 2.31505 11.2801 2.35171V2.35386Z" fill="#D2E823"/>
<path d="M10.7737 3.08254C11.4679 3.16663 12.8192 3.42104 12.9396 4.26192C12.9615 4.42363 12.5958 4.53574 12.5739 4.38697C12.4644 3.61941 11.2073 3.40595 10.57 3.32833C10.3467 3.3003 10.6248 3.06529 10.7715 3.08254H10.7737Z" fill="#D2E823"/>
<path d="M39.7901 34.0529C39.7901 34.0529 45.7951 33.7187 44.93 41.444C44.9278 41.4655 44.9234 41.4871 44.9191 41.5087L41.9188 54.5616C41.8421 54.898 41.4764 55.0899 41.1501 54.9584C41.1457 54.9584 41.1391 54.9541 41.1347 54.9519C40.5938 54.7255 41.0559 54.6479 41.3603 53.6582C41.6647 52.6686 41.8487 43.848 40.8413 42.9403C39.8339 42.0326 37.3066 46.2284 30.5855 45.5772C26.1377 45.146 23.8842 44.2059 22.8702 43.6195C22.522 43.4168 22.0774 43.6238 22.0161 44.0162L20.4327 53.2313C20.4086 53.3866 20.3605 53.9924 20.2072 54.221C20.0363 54.4754 19.5107 54.9519 19.0508 54.456C18.3522 53.6992 19.7407 53.6151 19.6597 52.9316C19.5786 52.2482 20.5335 42.8907 19.7582 42.1361C18.983 41.3793 17.2769 40.0964 17.0492 41.0085C16.8214 41.9226 16.5718 53.0222 16.5718 53.0998C16.5718 53.1774 15.5666 54.581 15.111 54.1714C14.1015 53.2637 15.4943 53.5612 15.4899 52.8777C15.4855 52.1943 14.4738 35.8532 14.4738 35.8532C14.4738 35.8532 13.3897 20.5773 13.2276 19.1327C13.0919 17.921 12.0648 12.9555 11.7385 11.3988C11.6815 11.1293 11.4384 10.9418 11.1603 10.9525C9.0579 11.0345 0.75344 11.1681 0.197181 8.25095C0.197181 8.25095 -0.115988 7.41655 0.73154 7.25915C1.58126 7.10176 7.83588 7.37558 9.06885 6.76109C10.3018 6.14661 14.4519 2.5524 15.6126 3.07849C16.7732 3.60458 19.2129 4.92195 18.5406 9.03146C17.8836 13.0375 18.6851 28.8891 18.7245 29.6782C18.7245 29.6976 18.7245 29.7148 18.7245 29.7342C18.7048 30.118 18.5712 34.7278 23.3082 34.704C28.251 34.6782 39.7923 34.0507 39.7923 34.0507L39.7901 34.0529Z" fill="#D2E823"/>
<path d="M14.3447 8.51415C14.6338 7.66465 15.1528 6.85612 16.0814 6.61679C16.2894 6.56289 16.5018 6.54133 16.7186 6.54133C16.7274 6.54133 16.734 6.54133 16.7405 6.54133C16.7449 6.54133 16.7515 6.54133 16.7559 6.54133C17.3143 6.51761 17.7458 7.09329 17.9845 7.51157C18.4422 8.31579 18.6458 9.26016 18.786 10.1636C18.959 11.2761 19.0225 12.4059 19.0576 13.5292C19.1057 15.0967 19.1386 16.5909 20.0255 17.9535C20.6256 18.8763 21.4972 19.5749 22.1192 20.4761C22.5856 21.151 22.9645 22.0372 22.6951 22.8586C22.1564 24.4951 19.8328 24.2213 18.5998 23.7189C17.9888 23.471 17.4698 23.1648 17.0296 22.6818C16.6442 22.2571 16.3332 21.7698 16.0616 21.2696C15.3608 19.9781 14.9031 18.5594 14.5615 17.1385C14.1892 15.5883 13.9571 13.9971 13.9089 12.4037C13.8695 11.1101 13.9264 9.75391 14.3469 8.51631L14.3447 8.51415Z" fill="#D2E823"/>
<path d="M13.539 5.92646C13.8872 5.90921 13.931 6.55172 13.931 6.77165C13.931 7.00882 13.8982 7.61252 13.5522 7.62977C13.2018 7.64702 13.1645 7.00235 13.1602 6.78458C13.1623 6.54741 13.1908 5.94371 13.539 5.92646Z" fill="#D2E823"/>
<path d="M0.0736416 7.63435C0.397761 7.10611 1.43144 7.14061 1.94609 7.13629C2.75419 6.99184 3.73969 6.88834 4.51495 7.19666C4.88944 7.34544 5.05807 7.56967 5.14567 7.94483C5.25298 8.40623 5.36029 8.85685 5.35591 9.33335C5.35153 9.82278 5.23108 10.3855 4.74052 10.6205C4.24558 10.8577 3.58201 10.7348 3.07393 10.6119C1.9658 10.3402 0.286071 9.61149 0.0364117 8.36527C-0.000818176 8.17984 -0.0358581 7.81331 0.0736416 7.63435Z" fill="#D2E823"/>
<path d="M11.7744 25.4068C12.392 25.2775 13.0095 25.1481 13.6249 25.0166C13.6446 25.0123 13.7432 25.0274 13.7957 25.0511C15.3506 25.0424 16.9055 25.036 18.4604 25.0274C18.5239 25.0274 18.7648 25.1028 18.7035 25.2106C18.3553 25.823 17.7969 26.3965 17.1443 26.6875C15.7602 27.3063 14.4812 26.3469 13.6359 25.3184C13.4169 25.575 13.1979 25.8337 12.9789 26.0903C12.9548 26.1183 12.8541 26.0925 12.7993 26.0623C12.7949 26.0623 12.7905 26.058 12.7884 26.058C12.4533 25.8574 12.116 25.6569 11.781 25.4543C11.7612 25.4435 11.7393 25.4155 11.7744 25.4068Z" fill="#D2E823"/>
</svg>
