<svg width="329" height="109" viewBox="0 0 329 109" fill="none" xmlns="http://www.w3.org/2000/svg">
<path d="M0 8.68701C0 4.26874 3.58172 0.687012 8 0.687012H96.3333C100.752 0.687012 104.333 4.26873 104.333 8.68701V100.687C104.333 105.105 100.752 108.687 96.3333 108.687H8.00001C3.58173 108.687 0 105.105 0 100.687V8.68701Z" fill="white"/>
<g clip-path="url(#clip0_116_6846)">
<path d="M47.9949 37.1245C46.8317 37.1245 45.8855 36.1783 45.8855 35.0151C45.8855 33.852 46.8317 32.9058 47.9949 32.9058C49.158 32.9058 50.1042 33.852 50.1042 35.0151C50.1042 36.1783 49.158 37.1245 47.9949 37.1245ZM47.9949 34.312C47.6069 34.312 47.2917 34.6272 47.2917 35.0151C47.2917 35.4031 47.6069 35.7183 47.9949 35.7183C48.3828 35.7183 48.698 35.4031 48.698 35.0151C48.698 34.6272 48.3828 34.312 47.9949 34.312Z" fill="#387FEB"/>
<path d="M59.2449 37.1245C58.0817 37.1245 57.1355 36.1783 57.1355 35.0151C57.1355 33.852 58.0817 32.9058 59.2449 32.9058C60.408 32.9058 61.3542 33.852 61.3542 35.0151C61.3542 36.1783 60.408 37.1245 59.2449 37.1245ZM59.2449 34.312C58.8569 34.312 58.5417 34.6272 58.5417 35.0151C58.5417 35.4031 58.8569 35.7183 59.2449 35.7183C59.6328 35.7183 59.948 35.4031 59.948 35.0151C59.948 34.6272 59.6328 34.312 59.2449 34.312Z" fill="#387FEB"/>
<path d="M40.1667 30.0933H43.073V31.4995H40.1667V30.0933Z" fill="#387FEB"/>
<path d="M40.1667 27.2808H43.073V28.687H40.1667V27.2808Z" fill="#387FEB"/>
<path d="M43.073 20.2495V24.4683H48.698V25.8745H43.073V27.2808H47.2917V28.687H43.073V30.0933H45.8855V31.4995H43.073V35.7183H44.5496C44.5074 35.4932 44.4792 35.2542 44.4792 35.0151C44.4792 33.0745 46.0542 31.4995 47.9949 31.4995C49.9355 31.4995 51.5105 33.0745 51.5105 35.0151C51.5105 35.2542 51.4823 35.4932 51.4402 35.7183H55.7996C55.7574 35.4932 55.7292 35.2542 55.7292 35.0151C55.7292 33.8761 56.2918 32.8635 57.1355 32.2167V20.2495H43.073Z" fill="#387FEB"/>
<path d="M40.1667 24.4683H43.073V25.8745H40.1667V24.4683Z" fill="#387FEB"/>
<path d="M61.3542 28.687H64.1667V26.2865L62.3485 24.4683H61.3542V28.687Z" fill="#387FEB"/>
<path d="M59.948 30.0933V24.4683H57.0417V32.2892C58.073 31.4058 59.0041 31.4995 59.2449 31.4995C61.1833 31.4995 62.7605 33.0767 62.7605 35.0151C62.7605 35.2559 62.7357 35.491 62.6893 35.7183H64.1667V30.0933H59.948Z" fill="#387FEB"/>
</g>
<path d="M46.4507 58.879H44.0507V62.399H46.3387V63.791H44.0507V68.687H42.4507V57.487H46.4507V58.879ZM50.6106 62.943C50.6106 62.175 50.2106 61.663 49.6346 61.663C49.0426 61.663 48.6586 62.175 48.6586 62.943V63.807H47.1386V63.023C47.1386 61.407 48.0986 60.367 49.6186 60.367C51.1386 60.367 52.1306 61.407 52.1306 63.023V68.671H50.6106V67.711H50.5626C50.1306 68.463 49.5066 68.847 48.7866 68.847C47.7466 68.847 47.0586 68.063 47.0586 66.911V66.175C47.0586 64.959 47.9066 64.239 49.3946 64.239H50.6106V62.943ZM50.6106 66.767V65.039H49.9866C49.0266 65.039 48.5786 65.375 48.5786 66.079V66.607C48.5786 67.247 48.9146 67.631 49.4906 67.631C50.0026 67.631 50.4186 67.311 50.6106 66.767ZM57.8791 63.487H56.3591V62.927C56.3591 62.143 55.9911 61.679 55.3831 61.679C54.7911 61.679 54.4071 62.111 54.4071 62.799V62.815C54.4071 63.439 54.6631 63.711 55.4151 63.935L56.3431 64.303C57.4311 64.671 57.9111 65.231 57.9111 66.319V66.527C57.9111 67.775 56.9191 68.847 55.3511 68.847C53.7831 68.847 52.8551 67.759 52.8551 66.271V65.727H54.3751V66.271C54.3751 67.023 54.7751 67.503 55.3671 67.503C55.9751 67.503 56.4071 67.055 56.4071 66.431V66.351C56.4071 65.711 56.1511 65.439 55.3511 65.215L54.3911 64.863C53.3671 64.511 52.9031 63.919 52.9031 62.863V62.719C52.9031 61.407 53.8151 60.367 55.3671 60.367C56.9511 60.367 57.8791 61.455 57.8791 62.943V63.487ZM58.3171 61.839V60.527H59.1171V58.783L60.6371 58.671V60.527H62.2531V61.839H60.6371V66.415C60.6371 67.231 61.0851 67.503 61.5971 67.503C61.8051 67.503 62.0131 67.455 62.2531 67.391L62.3011 68.703C61.8691 68.799 61.4851 68.847 61.1331 68.847C59.9651 68.847 59.1171 68.255 59.1171 66.495V61.839H58.3171ZM37.7843 77.567H36.1843V76.095C36.1843 75.231 35.7363 74.719 35.0003 74.719C34.2643 74.719 33.8323 75.231 33.8323 76.095V76.719C33.8323 77.583 34.1363 77.983 35.4003 78.495L36.0403 78.735C37.3363 79.231 37.8163 80.015 37.8163 81.663V81.967C37.8163 83.775 36.7603 84.847 34.9843 84.847C33.2083 84.847 32.2003 83.791 32.2003 81.967V80.607H33.8003V82.079C33.8003 82.943 34.2483 83.455 35.0003 83.455C35.7683 83.455 36.2163 82.943 36.2163 82.079V81.407C36.2163 80.543 35.8963 80.143 34.6803 79.647L33.9763 79.391C32.7283 78.895 32.2323 78.063 32.2323 76.447V76.207C32.2323 74.367 33.2403 73.327 34.9843 73.327C36.7443 73.327 37.7843 74.399 37.7843 76.207V77.567ZM38.6534 84.687V73.167H40.1734V77.663H40.2694C40.6214 76.831 41.2454 76.367 41.9654 76.367C42.9414 76.367 43.7094 77.199 43.7094 78.703V84.687H42.1894V78.911C42.1894 78.207 41.8054 77.711 41.2774 77.711C40.7974 77.711 40.3654 78.095 40.1734 78.703V84.687H38.6534ZM44.4328 74.575C44.4328 74.015 44.7688 73.727 45.3608 73.727C45.9528 73.727 46.3048 74.031 46.3048 74.575C46.3048 75.135 45.9528 75.439 45.3608 75.439C44.7688 75.439 44.4328 75.135 44.4328 74.575ZM44.6088 76.527H46.1448V84.687H44.6088V76.527ZM47.0437 76.527H48.5637V77.743H48.6757C49.1557 76.783 49.7477 76.367 50.3717 76.367C51.3797 76.367 52.0997 77.359 52.0997 78.767V82.463C52.0997 83.871 51.3957 84.847 50.4197 84.847C49.7317 84.847 49.0597 84.351 48.6757 83.471H48.5637V87.967H47.0437V76.527ZM48.5637 78.799V82.431C48.7557 83.023 49.2037 83.439 49.6677 83.439C50.1957 83.439 50.5797 82.911 50.5797 82.223V78.991C50.5797 78.303 50.1957 77.791 49.6677 77.791C49.2037 77.791 48.7557 78.207 48.5637 78.799ZM52.9031 76.527H54.4231V77.743H54.5351C55.0151 76.783 55.6071 76.367 56.2311 76.367C57.2391 76.367 57.9591 77.359 57.9591 78.767V82.463C57.9591 83.871 57.2551 84.847 56.2791 84.847C55.5911 84.847 54.9191 84.351 54.5351 83.471H54.4231V87.967H52.9031V76.527ZM54.4231 78.799V82.431C54.6151 83.023 55.0631 83.439 55.5271 83.439C56.0551 83.439 56.4391 82.911 56.4391 82.223V78.991C56.4391 78.303 56.0551 77.791 55.5271 77.791C55.0631 77.791 54.6151 78.207 54.4231 78.799ZM58.6984 74.575C58.6984 74.015 59.0344 73.727 59.6264 73.727C60.2184 73.727 60.5704 74.031 60.5704 74.575C60.5704 75.135 60.2184 75.439 59.6264 75.439C59.0344 75.439 58.6984 75.135 58.6984 74.575ZM58.8744 76.527H60.4104V84.687H58.8744V76.527ZM61.3093 84.687V76.527H62.8293V77.663H62.9413C63.2933 76.831 63.9013 76.367 64.6213 76.367C65.5973 76.367 66.3653 77.199 66.3653 78.703V84.687H64.8453V78.895C64.8453 78.191 64.4613 77.695 63.9333 77.695C63.4533 77.695 63.0213 78.095 62.8293 78.687V84.687H61.3093ZM72.2087 76.527V85.551C72.2087 87.087 71.2487 88.047 69.7127 88.047C68.1767 88.047 67.2167 87.087 67.2167 85.567V85.295H68.7367V85.487C68.7367 86.239 69.1207 86.735 69.6967 86.735C70.2887 86.735 70.6887 86.239 70.6887 85.455V83.551H70.5767C70.1927 84.367 69.5527 84.847 68.8647 84.847C67.8407 84.847 67.1367 83.871 67.1367 82.463V78.687C67.1367 77.311 67.8247 76.367 68.8487 76.367C69.5367 76.367 70.1927 76.831 70.5767 77.663H70.6887V76.527H72.2087ZM70.6887 78.719C70.4807 78.127 70.0167 77.711 69.5527 77.711C69.0407 77.711 68.6567 78.223 68.6567 78.927V82.271C68.6567 82.975 69.0407 83.519 69.5527 83.519C70.0167 83.519 70.4807 83.087 70.6887 82.495V78.719Z" fill="#172027"/>
<path d="M112.333 8.68701C112.333 4.26874 115.915 0.687012 120.333 0.687012H208.667C213.085 0.687012 216.667 4.26873 216.667 8.68701V100.687C216.667 105.105 213.085 108.687 208.667 108.687H120.333C115.915 108.687 112.333 105.105 112.333 100.687V8.68701Z" fill="white"/>
<g clip-path="url(#clip1_116_6846)">
<path d="M175.991 29.4638L171.069 28.0576C170.942 28.0218 170.808 28.0218 170.681 28.0576L165.759 29.4638C165.459 29.5503 165.25 29.8264 165.25 30.1402V33.4587C165.25 36.7876 167.484 39.7491 170.683 40.6603C170.746 40.6781 170.81 40.687 170.875 40.687C170.94 40.687 171.004 40.6781 171.067 40.6603C174.266 39.7491 176.5 36.7876 176.5 33.4587V30.1402C176.5 29.8264 176.291 29.5503 175.991 29.4638ZM173.481 33.4498L170.669 36.2623C170.532 36.3996 170.352 36.4683 170.172 36.4683C169.992 36.4683 169.812 36.3996 169.675 36.2623L168.269 34.856C167.994 34.5814 167.994 34.1364 168.269 33.8618C168.543 33.5871 168.988 33.5871 169.263 33.8618L170.172 34.7709L172.487 32.4555C172.762 32.1809 173.207 32.1809 173.482 32.4555C173.756 32.7301 173.756 33.1751 173.481 33.4498Z" fill="#387FEB"/>
<path d="M157.465 22.4053C157.853 22.4053 158.168 22.0905 158.168 21.7021C158.168 21.3138 157.853 20.999 157.465 20.999C157.077 20.999 156.762 21.3138 156.762 21.7021C156.762 22.0905 157.077 22.4053 157.465 22.4053Z" fill="#387FEB"/>
<path d="M174.387 16.6865H154.605C153.442 16.6865 152.496 17.6327 152.496 18.7959V30.1396C152.496 31.3028 153.442 32.249 154.605 32.249H163.84V30.1396C163.84 29.2044 164.467 28.3709 165.367 28.112L170.292 26.705C170.482 26.6508 170.676 26.624 170.871 26.624C171.066 26.624 171.26 26.6508 171.446 26.7037C173.475 27.2915 175.921 27.9628 176.496 28.1701V18.7959C176.496 17.6327 175.55 16.6865 174.387 16.6865ZM157.512 28.0303H156.105C155.717 28.0303 155.402 27.7158 155.402 27.3271C155.402 26.9385 155.717 26.624 156.105 26.624H157.512C157.9 26.624 158.215 26.9385 158.215 27.3271C158.215 27.7158 157.9 28.0303 157.512 28.0303ZM157.465 23.8115C156.302 23.8115 155.355 22.8653 155.355 21.7021C155.355 20.539 156.302 19.5928 157.465 19.5928C158.628 19.5928 159.574 20.539 159.574 21.7021C159.574 22.8653 158.628 23.8115 157.465 23.8115ZM161.73 28.0303H160.324C159.936 28.0303 159.621 27.7158 159.621 27.3271C159.621 26.9385 159.936 26.624 160.324 26.624H161.73C162.119 26.624 162.434 26.9385 162.434 27.3271C162.434 27.7158 162.119 28.0303 161.73 28.0303ZM172.98 22.4053H164.543C164.154 22.4053 163.84 22.0908 163.84 21.7021C163.84 21.3135 164.154 20.999 164.543 20.999H172.98C173.369 20.999 173.684 21.3135 173.684 21.7021C173.684 22.0908 173.369 22.4053 172.98 22.4053Z" fill="#387FEB"/>
</g>
<path d="M150.836 61.567H149.236V60.095C149.236 59.231 148.788 58.719 148.052 58.719C147.316 58.719 146.884 59.231 146.884 60.095V60.719C146.884 61.583 147.188 61.983 148.452 62.495L149.092 62.735C150.388 63.231 150.868 64.015 150.868 65.663V65.967C150.868 67.775 149.812 68.847 148.036 68.847C146.26 68.847 145.252 67.791 145.252 65.967V64.607H146.852V66.079C146.852 66.943 147.3 67.455 148.052 67.455C148.82 67.455 149.268 66.943 149.268 66.079V65.407C149.268 64.543 148.948 64.143 147.732 63.647L147.028 63.391C145.78 62.895 145.284 62.063 145.284 60.447V60.207C145.284 58.367 146.292 57.327 148.036 57.327C149.796 57.327 150.836 58.399 150.836 60.207V61.567ZM153.161 64.991V66.271C153.161 67.023 153.577 67.535 154.185 67.535C154.793 67.535 155.193 67.023 155.193 66.271V65.631H156.713V66.191C156.713 67.791 155.705 68.847 154.169 68.847C152.617 68.847 151.641 67.807 151.641 66.191V63.023C151.641 61.407 152.617 60.367 154.153 60.367C155.705 60.367 156.713 61.423 156.713 63.023V64.991H153.161ZM153.161 62.943V64.127H155.193V62.943C155.193 62.175 154.777 61.679 154.185 61.679C153.577 61.679 153.161 62.175 153.161 62.943ZM158.989 62.943V66.271C158.989 67.039 159.405 67.535 160.013 67.535C160.621 67.535 161.021 67.039 161.021 66.271V65.151H162.541V66.191C162.541 67.807 161.533 68.847 159.997 68.847C158.445 68.847 157.469 67.807 157.469 66.191V63.023C157.469 61.407 158.445 60.367 159.981 60.367C161.533 60.367 162.541 61.423 162.541 63.023V64.063H161.021V62.943C161.021 62.175 160.605 61.679 160.013 61.679C159.405 61.679 158.989 62.175 158.989 62.943ZM168.37 60.527V68.687H166.85V67.551H166.738C166.354 68.383 165.746 68.847 165.026 68.847C164.066 68.847 163.298 68.015 163.298 66.511V60.527H164.818V66.351C164.818 67.055 165.186 67.551 165.73 67.551C166.21 67.551 166.642 67.151 166.85 66.543V60.527H168.37ZM170.678 60.527V61.983H170.726C171.062 61.007 171.59 60.367 172.598 60.367C172.694 60.367 172.774 60.367 172.87 60.383V61.887C172.742 61.855 172.63 61.855 172.502 61.855C171.238 61.855 170.678 62.783 170.678 64.191V68.687H169.158V60.527H170.678ZM174.708 64.991V66.271C174.708 67.023 175.124 67.535 175.732 67.535C176.34 67.535 176.74 67.023 176.74 66.271V65.631H178.26V66.191C178.26 67.791 177.252 68.847 175.716 68.847C174.164 68.847 173.188 67.807 173.188 66.191V63.023C173.188 61.407 174.164 60.367 175.7 60.367C177.252 60.367 178.26 61.423 178.26 63.023V64.991H174.708ZM174.708 62.943V64.127H176.74V62.943C176.74 62.175 176.324 61.679 175.732 61.679C175.124 61.679 174.708 62.175 174.708 62.943ZM184.088 68.687H182.568V67.663H182.456C182.12 68.415 181.496 68.847 180.824 68.847C179.832 68.847 179.016 67.903 179.016 66.351V62.591C179.016 61.183 179.816 60.367 180.808 60.367C181.512 60.367 182.168 60.783 182.456 61.519L182.568 61.503V57.167H184.088V68.687ZM182.568 66.623V62.543C182.408 62.031 181.992 61.695 181.512 61.695C180.936 61.695 180.536 62.191 180.536 62.911V66.287C180.536 66.991 180.936 67.503 181.496 67.503C181.976 67.503 182.408 67.151 182.568 66.623ZM144.086 76.095V82.079C144.086 83.103 144.694 83.455 145.302 83.455C145.926 83.455 146.518 83.103 146.518 82.079V79.807H148.118V81.967C148.118 83.951 146.902 84.847 145.286 84.847C143.67 84.847 142.486 83.967 142.486 81.967V76.207C142.486 74.191 143.67 73.327 145.286 73.327C146.902 73.327 148.118 74.223 148.118 76.207V78.367H146.518V76.095C146.518 75.055 145.926 74.719 145.302 74.719C144.694 74.719 144.086 75.055 144.086 76.095ZM148.955 84.687V73.167H150.475V77.663H150.571C150.923 76.831 151.547 76.367 152.267 76.367C153.243 76.367 154.011 77.199 154.011 78.703V84.687H152.491V78.911C152.491 78.207 152.107 77.711 151.579 77.711C151.099 77.711 150.667 78.095 150.475 78.703V84.687H148.955ZM156.271 80.991V82.271C156.271 83.023 156.687 83.535 157.295 83.535C157.903 83.535 158.303 83.023 158.303 82.271V81.631H159.823V82.191C159.823 83.791 158.815 84.847 157.279 84.847C155.727 84.847 154.751 83.807 154.751 82.191V79.023C154.751 77.407 155.727 76.367 157.263 76.367C158.815 76.367 159.823 77.423 159.823 79.023V80.991H156.271ZM156.271 78.943V80.127H158.303V78.943C158.303 78.175 157.887 77.679 157.295 77.679C156.687 77.679 156.271 78.175 156.271 78.943ZM162.099 78.943V82.271C162.099 83.039 162.515 83.535 163.123 83.535C163.731 83.535 164.131 83.039 164.131 82.271V81.151H165.651V82.191C165.651 83.807 164.643 84.847 163.107 84.847C161.555 84.847 160.579 83.807 160.579 82.191V79.023C160.579 77.407 161.555 76.367 163.091 76.367C164.643 76.367 165.651 77.423 165.651 79.023V80.063H164.131V78.943C164.131 78.175 163.715 77.679 163.123 77.679C162.515 77.679 162.099 78.175 162.099 78.943ZM167.975 73.151V79.663H168.071L169.783 76.511H171.319L169.287 80.383L171.399 84.671H169.879L168.071 81.135H167.975V84.671H166.455V73.151H167.975ZM171.532 79.023C171.532 77.455 172.444 76.367 174.044 76.367C175.644 76.367 176.604 77.471 176.604 79.023V82.191C176.604 83.743 175.644 84.847 174.044 84.847C172.444 84.847 171.532 83.759 171.532 82.191V79.023ZM173.052 78.943V82.271C173.052 83.039 173.452 83.535 174.06 83.535C174.668 83.535 175.084 83.039 175.084 82.271V78.943C175.084 78.175 174.668 77.679 174.06 77.679C173.452 77.679 173.052 78.175 173.052 78.943ZM182.416 76.527V84.687H180.896V83.551H180.784C180.4 84.383 179.792 84.847 179.072 84.847C178.112 84.847 177.344 84.015 177.344 82.511V76.527H178.864V82.351C178.864 83.055 179.232 83.551 179.776 83.551C180.256 83.551 180.688 83.151 180.896 82.543V76.527H182.416ZM182.916 77.839V76.527H183.716V74.783L185.236 74.671V76.527H186.852V77.839H185.236V82.415C185.236 83.231 185.684 83.503 186.196 83.503C186.404 83.503 186.612 83.455 186.852 83.391L186.9 84.703C186.468 84.799 186.084 84.847 185.732 84.847C184.564 84.847 183.716 84.255 183.716 82.495V77.839H182.916Z" fill="#172027"/>
<rect x="224.667" y="0.687012" width="104.333" height="108" rx="8" fill="white"/>
<g clip-path="url(#clip2_116_6846)">
<path d="M288.236 22.3906L286.659 22.1613L285.953 20.7318C285.695 20.2092 284.95 20.2092 284.692 20.7318L283.987 22.1613L282.409 22.3906C281.832 22.4744 281.602 23.1831 282.019 23.5899L283.161 24.7026L282.891 26.2738C282.793 26.8482 283.396 27.2862 283.912 27.015L285.323 26.2732L286.734 27.015C287.249 27.2862 287.852 26.8482 287.754 26.2738L287.484 24.7026L288.626 23.5899C289.043 23.1831 288.813 22.4744 288.236 22.3906Z" fill="#387FEB"/>
<path d="M274.325 21.9028L273.972 23.9579C273.874 24.5323 274.477 24.9703 274.993 24.6991L276.838 23.7288L278.684 24.6991C279.199 24.9703 279.802 24.5323 279.704 23.9579L279.351 21.9028L280.845 20.4473C281.262 20.0406 281.032 19.3318 280.455 19.248L278.391 18.9482L277.469 17.0785C277.211 16.5559 276.466 16.5559 276.208 17.0785L275.285 18.9483L273.221 19.2481C272.645 19.3319 272.414 20.0406 272.832 20.4474L274.325 21.9028Z" fill="#387FEB"/>
<path d="M270.134 29.9053H265.541C265.152 29.9053 264.837 30.2201 264.837 30.6084V39.9834C264.837 40.3717 265.152 40.6865 265.541 40.6865H270.134C270.523 40.6865 270.837 40.3717 270.837 39.9834V30.6084C270.837 30.2201 270.523 29.9053 270.134 29.9053Z" fill="#387FEB"/>
<path d="M281.853 30.8428H278.572V28.0303C278.572 26.9948 277.732 26.1553 276.697 26.1553C276.179 26.1553 275.759 26.575 275.759 27.0928V29.2021C275.759 29.6556 275.609 30.1051 275.337 30.4678C274.941 30.9961 274.31 31.3115 273.65 31.3115H272.244V39.2803H274.073C275.084 40.1894 276.378 40.6865 277.748 40.6865H281.384C282.727 40.6865 283.832 39.6549 283.951 38.3428H280.916C280.527 38.3428 280.212 38.028 280.212 37.6396C280.212 37.2513 280.527 36.9365 280.916 36.9365H283.962V34.5928H280.916C280.527 34.5928 280.212 34.278 280.212 33.8896C280.212 33.5013 280.527 33.1865 280.916 33.1865H283.962V32.9521C283.962 31.789 283.016 30.8428 281.853 30.8428Z" fill="#387FEB"/>
<path d="M271.267 22.3906L269.69 22.1613L268.984 20.7318C268.726 20.2092 267.981 20.2092 267.723 20.7318L267.018 22.1613L265.44 22.3906C264.863 22.4744 264.633 23.1831 265.051 23.5899L266.192 24.7026L265.923 26.2738C265.824 26.8482 266.427 27.2862 266.943 27.015L268.354 26.2732L269.765 27.015C270.281 27.2862 270.884 26.8482 270.785 26.2738L270.516 24.7026L271.657 23.5899C272.074 23.1831 271.844 22.4744 271.267 22.3906Z" fill="#387FEB"/>
</g>
<path d="M261.453 52.095C261.453 51.215 261.005 50.719 260.237 50.719C259.469 50.719 259.021 51.215 259.021 52.095V53.327H257.421V52.207C257.421 50.399 258.477 49.327 260.269 49.327C262.029 49.327 263.053 50.367 263.053 52.207V52.431C263.053 54.031 262.365 54.831 261.469 55.007V55.119C262.381 55.263 263.053 56.095 263.053 57.727V57.967C263.053 59.807 262.029 60.847 260.269 60.847C258.477 60.847 257.421 59.775 257.421 57.967V56.847H259.021V58.079C259.021 58.959 259.469 59.455 260.237 59.455C261.005 59.455 261.453 58.959 261.453 58.079V57.471C261.453 56.159 261.069 55.695 259.757 55.695H259.389V54.463H259.757C261.021 54.463 261.453 53.951 261.453 52.687V52.095ZM263.89 52.207C263.89 50.191 265.074 49.327 266.674 49.327C268.306 49.327 269.522 50.223 269.522 52.207V57.967C269.522 59.951 268.306 60.847 266.674 60.847C265.074 60.847 263.89 59.967 263.89 57.967V52.207ZM265.49 52.095V58.079C265.49 59.103 266.082 59.455 266.706 59.455C267.314 59.455 267.922 59.103 267.922 58.079V52.095C267.922 51.071 267.314 50.719 266.706 50.719C266.082 50.719 265.49 51.071 265.49 52.095ZM273.251 49.487H275.923C277.555 49.487 278.771 50.303 278.771 52.255V57.919C278.771 59.887 277.555 60.687 275.923 60.687H273.251V49.487ZM274.851 50.879V59.295H275.907C276.579 59.295 277.155 58.975 277.155 57.935V52.239C277.155 51.199 276.579 50.879 275.907 50.879H274.851ZM283.098 54.943C283.098 54.175 282.698 53.663 282.122 53.663C281.53 53.663 281.146 54.175 281.146 54.943V55.807H279.626V55.023C279.626 53.407 280.586 52.367 282.106 52.367C283.626 52.367 284.618 53.407 284.618 55.023V60.671H283.098V59.711H283.05C282.618 60.463 281.994 60.847 281.274 60.847C280.234 60.847 279.546 60.063 279.546 58.911V58.175C279.546 56.959 280.394 56.239 281.882 56.239H283.098V54.943ZM283.098 58.767V57.039H282.474C281.514 57.039 281.066 57.375 281.066 58.079V58.607C281.066 59.247 281.402 59.631 281.978 59.631C282.49 59.631 282.906 59.311 283.098 58.767ZM290.446 52.527V61.551C290.446 63.087 289.502 64.047 287.95 64.047C286.414 64.047 285.454 63.087 285.454 61.567V61.295H286.974V61.487C286.974 62.239 287.374 62.735 287.95 62.735C288.542 62.735 288.926 62.239 288.926 61.455V59.551H288.814C288.43 60.383 287.822 60.847 287.102 60.847C286.142 60.847 285.374 60.015 285.374 58.511V52.527H286.894V58.351C286.894 59.055 287.262 59.551 287.806 59.551C288.286 59.551 288.718 59.151 288.926 58.543V52.527H290.446ZM296.225 55.487H294.705V54.927C294.705 54.143 294.337 53.679 293.729 53.679C293.137 53.679 292.753 54.111 292.753 54.799V54.815C292.753 55.439 293.009 55.711 293.761 55.935L294.689 56.303C295.777 56.671 296.257 57.231 296.257 58.319V58.527C296.257 59.775 295.265 60.847 293.697 60.847C292.129 60.847 291.201 59.759 291.201 58.271V57.727H292.721V58.271C292.721 59.023 293.121 59.503 293.713 59.503C294.321 59.503 294.753 59.055 294.753 58.431V58.351C294.753 57.711 294.497 57.439 293.697 57.215L292.737 56.863C291.713 56.511 291.249 55.919 291.249 54.863V54.719C291.249 53.407 292.161 52.367 293.713 52.367C295.297 52.367 296.225 53.455 296.225 54.943V55.487ZM248.547 65.487H250.707L252.003 74.063H252.115L253.411 65.487H255.571V76.687H254.083L254.259 68.143H254.147L252.659 76.687H251.475L249.971 68.143H249.859L250.035 76.687H248.547V65.487ZM256.405 71.023C256.405 69.455 257.317 68.367 258.917 68.367C260.517 68.367 261.477 69.471 261.477 71.023V74.191C261.477 75.743 260.517 76.847 258.917 76.847C257.317 76.847 256.405 75.759 256.405 74.191V71.023ZM257.925 70.943V74.271C257.925 75.039 258.325 75.535 258.933 75.535C259.541 75.535 259.957 75.039 259.957 74.271V70.943C259.957 70.175 259.541 69.679 258.933 69.679C258.325 69.679 257.925 70.175 257.925 70.943ZM262.265 76.687V68.527H263.785V69.663H263.897C264.249 68.831 264.857 68.367 265.577 68.367C266.553 68.367 267.321 69.199 267.321 70.703V76.687H265.801V70.895C265.801 70.191 265.417 69.695 264.889 69.695C264.409 69.695 263.977 70.095 263.785 70.687V76.687H262.265ZM269.596 72.991V74.271C269.596 75.023 270.012 75.535 270.62 75.535C271.228 75.535 271.628 75.023 271.628 74.271V73.631H273.148V74.191C273.148 75.791 272.14 76.847 270.604 76.847C269.052 76.847 268.076 75.807 268.076 74.191V71.023C268.076 69.407 269.052 68.367 270.588 68.367C272.14 68.367 273.148 69.423 273.148 71.023V72.991H269.596ZM269.596 70.943V72.127H271.628V70.943C271.628 70.175 271.212 69.679 270.62 69.679C270.012 69.679 269.596 70.175 269.596 70.943ZM279.009 68.527V77.551C279.009 79.087 278.065 80.047 276.513 80.047C274.977 80.047 274.017 79.087 274.017 77.567V77.295H275.537V77.487C275.537 78.239 275.937 78.735 276.513 78.735C277.105 78.735 277.489 78.239 277.489 77.455V75.551H277.377C276.993 76.383 276.385 76.847 275.665 76.847C274.705 76.847 273.937 76.015 273.937 74.511V68.527H275.457V74.351C275.457 75.055 275.825 75.551 276.369 75.551C276.849 75.551 277.281 75.151 277.489 74.543V68.527H279.009ZM282.719 65.487H285.247C287.071 65.487 288.079 66.479 288.079 68.271V68.351C288.079 69.887 287.359 70.735 286.463 70.911V71.023C287.455 71.183 288.319 72.143 288.319 73.743V73.871C288.319 75.679 287.231 76.687 285.327 76.687H282.719V65.487ZM284.319 66.895V70.287H285.231C286.079 70.287 286.479 69.839 286.479 68.911V68.271C286.479 67.327 286.079 66.895 285.231 66.895H284.319ZM284.319 71.679V75.295H285.311C286.207 75.295 286.639 74.831 286.639 73.871V73.103C286.639 72.143 286.191 71.679 285.279 71.679H284.319ZM292.519 70.943C292.519 70.175 292.119 69.663 291.543 69.663C290.951 69.663 290.567 70.175 290.567 70.943V71.807H289.047V71.023C289.047 69.407 290.007 68.367 291.527 68.367C293.047 68.367 294.039 69.407 294.039 71.023V76.671H292.519V75.711H292.471C292.039 76.463 291.415 76.847 290.695 76.847C289.655 76.847 288.967 76.063 288.967 74.911V74.175C288.967 72.959 289.815 72.239 291.303 72.239H292.519V70.943ZM292.519 74.767V73.039H291.895C290.935 73.039 290.487 73.375 290.487 74.079V74.607C290.487 75.247 290.823 75.631 291.399 75.631C291.911 75.631 292.327 75.311 292.519 74.767ZM296.284 70.943V74.271C296.284 75.039 296.7 75.535 297.308 75.535C297.916 75.535 298.316 75.039 298.316 74.271V73.151H299.836V74.191C299.836 75.807 298.828 76.847 297.292 76.847C295.74 76.847 294.764 75.807 294.764 74.191V71.023C294.764 69.407 295.74 68.367 297.276 68.367C298.828 68.367 299.836 69.423 299.836 71.023V72.063H298.316V70.943C298.316 70.175 297.9 69.679 297.308 69.679C296.7 69.679 296.284 70.175 296.284 70.943ZM302.16 65.151V71.663H302.256L303.968 68.511H305.504L303.472 72.383L305.584 76.671H304.064L302.256 73.135H302.16V76.671H300.64V65.151H302.16ZM251.17 84.111V90.079C251.17 90.991 251.698 91.455 252.258 91.455C252.914 91.455 253.602 90.847 253.602 89.599V87.823H252.338V86.751H255.186V92.687H254.05V91.359H253.938C253.618 92.351 252.754 92.847 251.89 92.847C250.738 92.847 249.57 91.951 249.57 89.967V84.207C249.57 82.207 250.754 81.327 252.37 81.327C253.97 81.327 255.186 82.223 255.186 84.207V85.999H253.602V84.111C253.602 83.071 253.01 82.735 252.386 82.735C251.778 82.735 251.17 83.071 251.17 84.111ZM261.094 84.527V92.687H259.574V91.551H259.462C259.078 92.383 258.47 92.847 257.75 92.847C256.79 92.847 256.022 92.015 256.022 90.511V84.527H257.542V90.351C257.542 91.055 257.91 91.551 258.454 91.551C258.934 91.551 259.366 91.151 259.574 90.543V84.527H261.094ZM265.402 86.943C265.402 86.175 265.002 85.663 264.426 85.663C263.834 85.663 263.45 86.175 263.45 86.943V87.807H261.93V87.023C261.93 85.407 262.89 84.367 264.41 84.367C265.93 84.367 266.922 85.407 266.922 87.023V92.671H265.402V91.711H265.354C264.922 92.463 264.298 92.847 263.578 92.847C262.538 92.847 261.85 92.063 261.85 90.911V90.175C261.85 88.959 262.698 88.239 264.186 88.239H265.402V86.943ZM265.402 90.767V89.039H264.778C263.818 89.039 263.37 89.375 263.37 90.079V90.607C263.37 91.247 263.706 91.631 264.282 91.631C264.794 91.631 265.21 91.311 265.402 90.767ZM269.215 84.527V85.983H269.263C269.599 85.007 270.127 84.367 271.135 84.367C271.231 84.367 271.311 84.367 271.407 84.383V85.887C271.279 85.855 271.167 85.855 271.039 85.855C269.775 85.855 269.215 86.783 269.215 88.191V92.687H267.695V84.527H269.215ZM275.371 86.943C275.371 86.175 274.971 85.663 274.395 85.663C273.803 85.663 273.419 86.175 273.419 86.943V87.807H271.899V87.023C271.899 85.407 272.859 84.367 274.379 84.367C275.899 84.367 276.891 85.407 276.891 87.023V92.671H275.371V91.711H275.323C274.891 92.463 274.267 92.847 273.547 92.847C272.507 92.847 271.819 92.063 271.819 90.911V90.175C271.819 88.959 272.667 88.239 274.155 88.239H275.371V86.943ZM275.371 90.767V89.039H274.747C273.787 89.039 273.339 89.375 273.339 90.079V90.607C273.339 91.247 273.675 91.631 274.251 91.631C274.763 91.631 275.179 91.311 275.371 90.767ZM277.663 92.687V84.527H279.183V85.663H279.295C279.647 84.831 280.255 84.367 280.975 84.367C281.951 84.367 282.719 85.199 282.719 86.703V92.687H281.199V86.895C281.199 86.191 280.815 85.695 280.287 85.695C279.807 85.695 279.375 86.095 279.183 86.687V92.687H277.663ZM283.109 85.839V84.527H283.909V82.783L285.429 82.671V84.527H287.045V85.839H285.429V90.415C285.429 91.231 285.877 91.503 286.389 91.503C286.597 91.503 286.805 91.455 287.045 91.391L287.093 92.703C286.661 92.799 286.277 92.847 285.925 92.847C284.757 92.847 283.909 92.255 283.909 90.495V85.839H283.109ZM288.932 88.991V90.271C288.932 91.023 289.348 91.535 289.956 91.535C290.564 91.535 290.964 91.023 290.964 90.271V89.631H292.484V90.191C292.484 91.791 291.476 92.847 289.94 92.847C288.388 92.847 287.412 91.807 287.412 90.191V87.023C287.412 85.407 288.388 84.367 289.924 84.367C291.476 84.367 292.484 85.423 292.484 87.023V88.991H288.932ZM288.932 86.943V88.127H290.964V86.943C290.964 86.175 290.548 85.679 289.956 85.679C289.348 85.679 288.932 86.175 288.932 86.943ZM294.76 88.991V90.271C294.76 91.023 295.176 91.535 295.784 91.535C296.392 91.535 296.792 91.023 296.792 90.271V89.631H298.312V90.191C298.312 91.791 297.304 92.847 295.768 92.847C294.216 92.847 293.24 91.807 293.24 90.191V87.023C293.24 85.407 294.216 84.367 295.752 84.367C297.304 84.367 298.312 85.423 298.312 87.023V88.991H294.76ZM294.76 86.943V88.127H296.792V86.943C296.792 86.175 296.376 85.679 295.784 85.679C295.176 85.679 294.76 86.175 294.76 86.943ZM304.141 92.687H302.621V91.663H302.509C302.173 92.415 301.549 92.847 300.877 92.847C299.885 92.847 299.069 91.903 299.069 90.351V86.591C299.069 85.183 299.869 84.367 300.861 84.367C301.565 84.367 302.221 84.783 302.509 85.519L302.621 85.503V81.167H304.141V92.687ZM302.621 90.623V86.543C302.461 86.031 302.045 85.695 301.565 85.695C300.989 85.695 300.589 86.191 300.589 86.911V90.287C300.589 90.991 300.989 91.503 301.549 91.503C302.029 91.503 302.461 91.151 302.621 90.623Z" fill="#172027"/>
<defs>
<clipPath id="clip0_116_6846">
<rect width="24" height="24" fill="white" transform="translate(40.1667 16.687)"/>
</clipPath>
<clipPath id="clip1_116_6846">
<rect width="24" height="24" fill="white" transform="translate(152.5 16.687)"/>
</clipPath>
<clipPath id="clip2_116_6846">
<rect width="24" height="24" fill="white" transform="translate(264.833 16.687)"/>
</clipPath>
</defs>
</svg>
