<svg width="1440" height="1084" viewBox="0 0 1440 1084" fill="none" xmlns="http://www.w3.org/2000/svg">
<rect width="1440" height="1084" fill="#387FEB"/>
<mask id="mask0_87_1069" style="mask-type:alpha" maskUnits="userSpaceOnUse" x="0" y="0" width="1440" height="1082">
<rect width="1440" height="1082" rx="8" fill="#172027"/>
</mask>
<g mask="url(#mask0_87_1069)">
<g opacity="0.03">
<mask id="mask1_87_1069" style="mask-type:alpha" maskUnits="userSpaceOnUse" x="-180" y="35" width="624" height="624">
<rect x="48.3262" y="35" width="456.652" height="456.652" transform="rotate(30 48.3262 35)" fill="#172027"/>
</mask>
<g mask="url(#mask1_87_1069)">
<path d="M7.12653 277.606C-4.40806 270.947 -11.8584 261.336 -15.2246 248.773C-18.5907 236.211 -16.944 224.162 -10.2845 212.627C-3.62502 201.093 5.98603 193.642 18.5486 190.276C31.1112 186.91 43.1598 188.557 54.6944 195.216C66.229 201.876 73.6794 211.487 77.0455 224.05C80.4116 236.612 78.765 248.661 72.1054 260.195C65.446 271.73 55.8349 279.18 43.2723 282.546C30.7097 285.913 18.6611 284.266 7.12653 277.606ZM119.332 254.505C107.797 247.846 100.347 238.235 96.9807 225.672C93.6146 213.11 95.2612 201.061 101.921 189.527C108.58 177.992 118.191 170.542 130.754 167.175C143.316 163.809 155.365 165.456 166.9 172.116C178.434 178.775 185.885 188.386 189.251 200.949C192.617 213.511 190.97 225.56 184.311 237.094C177.651 248.629 168.04 256.079 155.478 259.446C142.915 262.812 130.866 261.165 119.332 254.505ZM218.2 311.587C206.665 304.927 199.215 295.316 195.849 282.754C192.483 270.191 194.129 258.143 200.789 246.608C207.448 235.073 217.059 227.623 229.622 224.257C242.184 220.891 254.233 222.537 265.768 229.197C277.302 235.856 284.753 245.468 288.119 258.03C291.485 270.593 289.838 282.641 283.179 294.176C276.519 305.71 266.908 313.161 254.346 316.527C241.783 319.893 229.734 318.246 218.2 311.587ZM254.296 420.31C242.762 413.65 235.311 404.039 231.945 391.477C228.579 378.914 230.226 366.866 236.885 355.331C243.545 343.796 253.156 336.346 265.719 332.98C278.281 329.614 290.33 331.261 301.864 337.92C313.399 344.58 320.849 354.191 324.215 366.753C327.582 379.316 325.935 391.364 319.275 402.899C312.616 414.434 303.005 421.884 290.442 425.25C277.88 428.616 265.831 426.97 254.296 420.31ZM-52.5815 462.84C-64.94 455.705 -72.5723 444.982 -75.4783 430.671C-78.3843 416.36 -76.1111 402.751 -68.6588 389.843C-60.4137 375.562 -48.3245 365.881 -32.3912 360.799C-16.4579 355.717 -0.672571 350.733 14.9649 345.847C27.8446 341.931 40.0618 336.626 51.6165 329.932C63.1712 323.238 75.4677 317.796 88.506 313.606C98.6705 309.953 109.083 308.092 119.743 308.021C130.402 307.951 140.401 310.611 149.739 316.002C159.076 321.393 166.459 328.585 171.886 337.577C177.313 346.57 180.987 356.38 182.906 367.009C185.522 380.237 186.849 393.636 186.887 407.207C186.925 420.777 188.389 434.256 191.279 447.642C194.866 463.628 198.443 479.79 202.008 496.13C205.574 512.469 203.234 527.78 194.989 542.061C187.537 554.968 176.887 563.742 163.041 568.38C149.194 573.019 136.092 571.771 123.733 564.636C108.903 556.074 94.9235 546.355 81.7949 535.479C68.6664 524.604 54.687 514.885 39.8568 506.323C25.0267 497.761 9.62027 490.514 -6.36232 484.582C-22.3449 478.65 -37.7513 471.403 -52.5815 462.84Z" fill="white"/>
</g>
</g>
<g opacity="0.03">
<mask id="mask2_87_1069" style="mask-type:alpha" maskUnits="userSpaceOnUse" x="987" y="-98" width="624" height="624">
<rect x="1382.47" y="525.798" width="456.652" height="456.652" transform="rotate(-150 1382.47 525.798)" fill="#172027"/>
</mask>
<g mask="url(#mask2_87_1069)">
<path d="M1423.67 283.191C1435.21 289.851 1442.66 299.462 1446.02 312.025C1449.39 324.587 1447.74 336.636 1441.08 348.17C1434.42 359.705 1424.81 367.155 1412.25 370.521C1399.69 373.888 1387.64 372.241 1376.1 365.581C1364.57 358.922 1357.12 349.311 1353.75 336.748C1350.39 324.186 1352.03 312.137 1358.69 300.603C1365.35 289.068 1374.96 281.618 1387.53 278.251C1400.09 274.885 1412.14 276.532 1423.67 283.191ZM1311.47 306.292C1323 312.952 1330.45 322.563 1333.82 335.125C1337.18 347.688 1335.54 359.737 1328.88 371.271C1322.22 382.806 1312.61 390.256 1300.04 393.622C1287.48 396.989 1275.43 395.342 1263.9 388.682C1252.36 382.023 1244.91 372.412 1241.55 359.849C1238.18 347.287 1239.83 335.238 1246.49 323.703C1253.15 312.169 1262.76 304.718 1275.32 301.352C1287.88 297.986 1299.93 299.633 1311.47 306.292ZM1212.6 249.211C1224.13 255.87 1231.58 265.481 1234.95 278.044C1238.32 290.607 1236.67 302.655 1230.01 314.19C1223.35 325.724 1213.74 333.175 1201.18 336.541C1188.61 339.907 1176.57 338.26 1165.03 331.601C1153.5 324.941 1146.05 315.33 1142.68 302.768C1139.31 290.205 1140.96 278.157 1147.62 266.622C1154.28 255.087 1163.89 247.637 1176.45 244.271C1189.02 240.905 1201.06 242.551 1212.6 249.211ZM1176.5 140.488C1188.04 147.147 1195.49 156.758 1198.85 169.321C1202.22 181.884 1200.57 193.932 1193.91 205.467C1187.25 217.001 1177.64 224.452 1165.08 227.818C1152.52 231.184 1140.47 229.537 1128.93 222.878C1117.4 216.218 1109.95 206.607 1106.58 194.045C1103.22 181.482 1104.86 169.434 1111.52 157.899C1118.18 146.364 1127.79 138.914 1140.36 135.548C1152.92 132.182 1164.97 133.828 1176.5 140.488ZM1483.38 97.9574C1495.74 105.093 1503.37 115.816 1506.28 130.126C1509.18 144.437 1506.91 158.047 1499.46 170.955C1491.21 185.235 1479.12 194.917 1463.19 199.999C1447.26 205.08 1431.47 210.065 1415.83 214.951C1402.95 218.866 1390.74 224.171 1379.18 230.866C1367.63 237.56 1355.33 243.002 1342.29 247.192C1332.13 250.844 1321.72 252.706 1311.06 252.776C1300.4 252.847 1290.4 250.187 1281.06 244.796C1271.72 239.405 1264.34 232.213 1258.91 223.221C1253.49 214.228 1249.81 204.418 1247.89 193.789C1245.28 180.561 1243.95 167.162 1243.91 153.591C1243.87 140.021 1242.41 126.542 1239.52 113.156C1235.93 97.1702 1232.36 81.0076 1228.79 64.6681C1225.22 48.3285 1227.56 33.0182 1235.81 18.7373C1243.26 5.82956 1253.91 -2.94373 1267.76 -7.5825C1281.6 -12.2213 1294.71 -10.9731 1307.07 -3.8379C1321.9 4.72431 1335.88 14.4431 1349 25.3185C1362.13 36.1938 1376.11 45.9126 1390.94 54.4748C1405.77 63.037 1421.18 70.2841 1437.16 76.2161C1453.14 82.1481 1468.55 89.3951 1483.38 97.9574Z" fill="white"/>
</g>
</g>
<g opacity="0.03">
<mask id="mask3_87_1069" style="mask-type:alpha" maskUnits="userSpaceOnUse" x="781" y="603" width="624" height="624">
<rect width="456.652" height="456.652" transform="matrix(-0.866025 0.5 0.5 0.866025 1176.47 603)" fill="#172027"/>
</mask>
<g mask="url(#mask3_87_1069)">
<path d="M1217.67 845.606C1229.21 838.947 1236.66 829.336 1240.02 816.773C1243.39 804.211 1241.74 792.162 1235.08 780.627C1228.42 769.093 1218.81 761.642 1206.25 758.276C1193.69 754.91 1181.64 756.557 1170.1 763.216C1158.57 769.876 1151.12 779.487 1147.75 792.05C1144.39 804.612 1146.03 816.661 1152.69 828.195C1159.35 839.73 1168.96 847.18 1181.53 850.546C1194.09 853.913 1206.14 852.266 1217.67 845.606ZM1105.47 822.505C1117 815.846 1124.45 806.235 1127.82 793.672C1131.18 781.11 1129.54 769.061 1122.88 757.527C1116.22 745.992 1106.61 738.542 1094.04 735.175C1081.48 731.809 1069.43 733.456 1057.9 740.116C1046.36 746.775 1038.91 756.386 1035.55 768.949C1032.18 781.511 1033.83 793.56 1040.49 805.094C1047.15 816.629 1056.76 824.079 1069.32 827.446C1081.88 830.812 1093.93 829.165 1105.47 822.505ZM1006.6 879.587C1018.13 872.927 1025.58 863.316 1028.95 850.754C1032.32 838.191 1030.67 826.143 1024.01 814.608C1017.35 803.073 1007.74 795.623 995.177 792.257C982.614 788.891 970.566 790.537 959.031 797.197C947.496 803.856 940.046 813.468 936.68 826.03C933.314 838.593 934.96 850.641 941.62 862.176C948.279 873.71 957.89 881.161 970.453 884.527C983.016 887.893 995.064 886.246 1006.6 879.587ZM970.502 988.31C982.037 981.65 989.487 972.039 992.853 959.477C996.219 946.914 994.573 934.866 987.913 923.331C981.254 911.796 971.643 904.346 959.08 900.98C946.517 897.614 934.469 899.261 922.934 905.92C911.4 912.58 903.949 922.191 900.583 934.753C897.217 947.316 898.864 959.364 905.523 970.899C912.183 982.434 921.794 989.884 934.356 993.25C946.919 996.616 958.968 994.97 970.502 988.31ZM1277.38 1030.84C1289.74 1023.71 1297.37 1012.98 1300.28 998.671C1303.18 984.36 1300.91 970.751 1293.46 957.843C1285.21 943.562 1273.12 933.881 1257.19 928.799C1241.26 923.717 1225.47 918.733 1209.83 913.847C1196.95 909.931 1184.74 904.626 1173.18 897.932C1161.63 891.238 1149.33 885.796 1136.29 881.606C1126.13 877.953 1115.72 876.092 1105.06 876.021C1094.4 875.951 1084.4 878.611 1075.06 884.002C1065.72 889.393 1058.34 896.585 1052.91 905.577C1047.49 914.57 1043.81 924.38 1041.89 935.009C1039.28 948.237 1037.95 961.636 1037.91 975.207C1037.87 988.777 1036.41 1002.26 1033.52 1015.64C1029.93 1031.63 1026.36 1047.79 1022.79 1064.13C1019.22 1080.47 1021.56 1095.78 1029.81 1110.06C1037.26 1122.97 1047.91 1131.74 1061.76 1136.38C1075.6 1141.02 1088.71 1139.77 1101.07 1132.64C1115.9 1124.07 1129.88 1114.35 1143 1103.48C1156.13 1092.6 1170.11 1082.89 1184.94 1074.32C1199.77 1065.76 1215.18 1058.51 1231.16 1052.58C1247.14 1046.65 1262.55 1039.4 1277.38 1030.84Z" fill="white"/>
</g>
</g>
</g>
</svg>
