<svg width="64" height="64" viewBox="0 0 64 64" fill="none" xmlns="http://www.w3.org/2000/svg">
<g clip-path="url(#clip0_91_2328)">
<path d="M22.625 54L22.625 50.875C22.625 49.8395 23.4645 49 24.5 49L39.5 49C40.5355 49 41.375 49.8395 41.375 50.875L41.375 54L54 54L54 10L10 10L10 54L22.625 54Z" fill="#387FEB"/>
<path d="M5.625 64L58.375 64C61.4766 64 64 61.4766 64 58.375L64 5.625C64 2.52338 61.4766 -2.206e-07 58.375 -4.91753e-07L5.62501 -5.1033e-06C2.52338 -5.37446e-06 5.37446e-06 2.52337 5.1033e-06 5.62499L4.91753e-07 58.375C2.206e-07 61.4766 2.52338 64 5.625 64ZM6.25 8.12499C6.25 7.0895 7.08951 6.25 8.12501 6.25L55.875 6.25C56.9105 6.25 57.75 7.0895 57.75 8.125L57.75 55.875C57.75 56.9105 56.9105 57.75 55.875 57.75L39.5 57.75C38.4645 57.75 37.625 56.9105 37.625 55.875L37.625 52.75L26.375 52.75L26.375 55.875C26.375 56.9105 25.5355 57.75 24.5 57.75L8.125 57.75C7.0895 57.75 6.25 56.9105 6.25 55.875L6.25 8.12499Z" fill="#387FEB"/>
</g>
<defs>
<clipPath id="clip0_91_2328">
<rect width="64" height="64" fill="white" transform="translate(64 64) rotate(-180)"/>
</clipPath>
</defs>
</svg>
