<svg width="1440" height="1032" viewBox="0 0 1440 1032" fill="none" xmlns="http://www.w3.org/2000/svg">
<rect width="1440" height="1032" fill="#387FEB"/>
<mask id="mask0_111_4089" style="mask-type:alpha" maskUnits="userSpaceOnUse" x="0" y="0" width="1440" height="1030">
<rect width="1440" height="1030" rx="8" fill="#172027"/>
</mask>
<g mask="url(#mask0_111_4089)">
<g opacity="0.1">
<path d="M-202.201 755.35C-177.004 696.283 -128.923 654.925 -66.8194 638.881C31.2907 613.56 120.593 659.949 145.606 674.742C182.262 696.454 212.857 726.32 236.907 759.48C243.22 768.187 263.732 812.974 272.285 815.531C281.041 818.134 297.628 799.719 321.393 789.767C391.583 760.377 482.453 764.145 559.368 802.371C652.291 848.505 719.844 942.548 725.426 1033.5C726.042 1043.64 725.997 1053.96 729.954 1063.94C737.757 1083.74 759.257 1097.55 780.091 1107.23C826.475 1128.74 925.181 1151.49 924.473 1212.26C924.096 1244.77 890.381 1271.98 870.336 1285.3C839.758 1305.6 799.139 1318.69 752.871 1323.15C676.471 1330.51 601.599 1317.71 530.041 1285.11C529.736 1284.97 529.399 1284.99 529.136 1285.17C483.06 1316.41 424.145 1349.88 353.694 1384.87C283.797 1419.58 210.273 1451.84 135.157 1480.76L122.803 1485.35C122.399 1485.5 121.93 1485.34 121.656 1484.96L113.73 1474C60.7871 1404.56 10.6322 1333.16 -35.3412 1261.75C-154.066 1077.45 -179.578 995.141 -187.964 968.097C-210.687 894.8 -232.135 825.589 -202.201 755.35ZM250.489 896.98C211.992 925.728 160.433 974.565 145.618 1006.69C135.363 1028.81 132.936 1054.34 152.806 1077.37C168.282 1095.3 193.208 1106.03 216.26 1105.96C226.438 1105.95 236.411 1103.91 244.339 1099.11C254.513 1092.96 260.676 1082.75 264.973 1072.11C275.745 1045.24 275.669 1014.83 271.194 984.814C268.917 969.459 265.451 954.084 261.624 938.799C260.663 934.925 248.496 898.442 250.489 896.98ZM-137.381 961.714C-129.528 987.056 -105.609 1064.23 9.08875 1242.27C48.479 1303.43 90.9943 1364.64 135.761 1424.53C136.041 1424.9 136.515 1425.05 136.916 1424.89C200.915 1399.37 263.52 1371.46 323.383 1341.73C397.623 1304.87 458.428 1269.89 504.217 1237.75L516.954 1228.15C517.229 1227.94 517.602 1227.92 517.929 1228.08L533.459 1235.87C599.185 1268.85 668.575 1282.08 739.632 1275.25C777.893 1271.58 810.975 1261.08 835.338 1244.88C857.919 1229.87 870.461 1206.94 871.674 1204.66C871.744 1204.53 871.774 1204.39 871.75 1204.24C871.689 1203.84 871.46 1203.01 870.587 1202.16C853.85 1185.85 828.557 1176.18 801.805 1165.98C781.124 1158.09 759.773 1149.95 740.043 1137.93C703.664 1115.75 680.047 1087.1 673.583 1057.2C670.885 1044.86 671.412 1033.44 671.867 1023.37C672.113 1018.41 672.303 1013.68 672.148 1009.26C671.655 997.067 667.899 983.45 661.022 968.826C635.476 914.765 585.424 865.995 527.069 838.351C493.117 822.243 441.181 806.238 386.571 821.401C350.711 831.359 323.72 848.068 293.981 867.65C293.614 867.892 293.466 868.368 293.629 868.816C322.037 946.736 355.084 1066.45 293.951 1125.61C265.373 1153.22 215.736 1160.98 172.099 1144.6C96.4785 1116.14 69.9169 1040.19 96.5418 982.548C119.2 933.495 193.006 870.945 230.263 846.087C230.652 845.828 230.765 845.311 230.556 844.849C230.04 843.711 229.528 842.592 229.006 841.457C201.857 782.871 165.834 739.997 121.965 714.041C107.831 705.681 33.3872 665.003 -45.6543 685.406C-111.492 702.4 -140.965 751.011 -152.682 778.478C-175.546 832.115 -161.769 883.031 -137.381 961.714Z" fill="white" stroke="white"/>
</g>
<g opacity="0.05">
<path d="M1360.68 60.4439C1364.76 62.1953 1368.79 64.7526 1373.13 68.0682C1369.11 65.3125 1364.94 62.7475 1360.68 60.4439Z" fill="white"/>
<path d="M938.108 47.8235C916.44 92.6961 916.802 141.908 939.118 186.398C974.387 256.67 1047.08 285.196 1068.49 292.267C1099.89 302.614 1132.96 305.256 1164.62 302.391C1172.93 301.638 1209.58 290.771 1215.44 294.466C1221.43 298.256 1219.13 317.349 1225.44 336.32C1244.08 392.347 1292.66 443.541 1354.25 468.992C1428.64 499.766 1518.09 491.259 1574.1 448.104C1580.34 443.29 1586.36 437.997 1594.21 435.216C1609.76 429.675 1628.81 435.194 1645.1 442.434C1681.35 458.565 1745.02 504.651 1780.17 473.229C1798.99 456.416 1797.69 422.819 1795.24 404.305C1791.51 376.07 1778.43 345.648 1757.42 316.327C1722.75 267.946 1677.1 230.727 1621.58 205.537C1621.27 205.399 1621.06 205.131 1621.03 204.816C1615.77 161.962 1605.27 110.481 1589.78 51.4968C1574.4 -7.07779 1555.74 -66.519 1534.3 -125.184L1530.74 -134.596C1530.59 -134.999 1530.16 -135.248 1529.7 -135.205L1519.42 -134.258C1451.81 -129.767 1384.48 -122.646 1319.28 -113.08C1150.95 -88.4205 1089.82 -61.3274 1069.73 -52.4279C1015.29 -28.3042 963.889 -5.51989 938.108 47.8235ZM1251.92 240.158C1249.08 202.984 1251.31 147.923 1262.53 122.865C1270.23 105.584 1283.91 91.1366 1307.52 90.9961C1325.89 90.895 1344.89 99.99 1356.61 113.5C1361.8 119.455 1365.69 126.326 1366.94 133.41C1368.54 142.492 1365.71 151.309 1361.68 159.25C1351.47 179.258 1333.66 194.735 1313.83 207.436C1303.69 213.941 1292.94 219.762 1282.05 225.325C1279.29 226.74 1251.76 238.247 1251.92 240.158ZM1091.82 -19.6025C1110.64 -27.9457 1167.95 -53.3471 1330.56 -77.1631C1386.36 -85.3455 1443.77 -91.7266 1501.57 -96.1196C1502.03 -96.1551 1502.46 -95.8969 1502.6 -95.4899C1520.32 -45.1069 1535.94 5.67726 1549.09 55.7951C1565.44 118 1576.02 171.393 1580.6 214.561L1581.48 226.782C1581.51 227.126 1581.73 227.425 1582.07 227.563L1594.43 232.617C1647.25 254.202 1690.4 288.011 1722.66 333.036C1740.05 357.272 1750.79 381.969 1753.76 404.475C1756.48 425.146 1749.63 444.02 1748.81 446.187C1748.76 446.327 1748.67 446.45 1748.54 446.53C1748.25 446.698 1747.67 446.953 1746.77 446.885C1728.7 445.423 1710.14 435.571 1690.52 425.142C1675.36 417.079 1659.7 408.753 1642.61 403.354C1611.07 393.41 1582.27 394.226 1561.5 405.704C1552.91 410.428 1546.5 416.565 1540.85 421.965C1538.07 424.644 1535.41 427.167 1532.74 429.333C1525.37 435.267 1515.49 440.021 1503.43 443.464C1458.79 456.121 1404.74 451.754 1358.8 431.75C1332.06 420.125 1296.2 397.935 1277.19 358.274C1264.74 332.283 1260.72 308.024 1257 280.715C1256.94 280.28 1257.2 279.856 1257.64 279.684C1317.68 256.511 1404.37 214.749 1407.75 148.884C1409.3 118.09 1388.51 85.112 1356.66 67.9683C1301.43 38.286 1243.48 61.5204 1223.37 106.501C1206.29 144.714 1207.36 219.588 1211.83 254.132C1211.89 254.595 1211.57 255.022 1211.09 255.168C1210.22 255.427 1209.37 255.681 1208.5 255.936C1160.4 269.966 1116.96 270.789 1079.4 258.392C1067.3 254.397 1005.53 231.641 977.115 175.026C953.449 127.869 966.823 85.8325 976.899 64.9662C996.583 24.2283 1033.38 6.29663 1091.82 -19.6025Z" fill="white" stroke="white"/>
</g>
</g>
</svg>
