<svg width="457" height="285" viewBox="0 0 457 285" fill="none" xmlns="http://www.w3.org/2000/svg">
<g clip-path="url(#clip0_17_76)">
<rect width="456.225" height="284.083" rx="9.36428" fill="white"/>
<g opacity="0.03">
<mask id="mask0_17_76" style="mask-type:alpha" maskUnits="userSpaceOnUse" x="-24" y="-13" width="191" height="191">
<rect width="139.164" height="138.822" transform="matrix(0.867088 0.498155 -0.501847 0.864956 46.1992 -12.125)" fill="#172027"/>
</mask>
<g mask="url(#mask0_17_76)">
<path d="M33.6276 61.5365C30.1082 59.5145 27.8349 56.5964 26.8078 52.7821C25.7807 48.9678 26.2832 45.3095 28.3151 41.8074C30.3471 38.3052 33.2796 36.0431 37.1128 35.021C40.9459 33.999 44.6222 34.499 48.1416 36.5209C51.6611 38.5429 53.9344 41.4611 54.9615 45.2754C55.9885 49.0897 55.4861 52.7479 53.4541 56.2501C51.4222 59.7523 48.4896 62.0144 44.6565 63.0364C40.8234 64.0585 37.1471 63.5585 33.6276 61.5365ZM67.8639 54.5225C64.3445 52.5005 62.0712 49.5824 61.0441 45.7681C60.017 41.9538 60.5195 38.2955 62.5514 34.7934C64.5834 31.2912 67.516 29.0291 71.3491 28.007C75.1822 26.985 78.8585 27.485 82.378 29.507C85.8974 31.5289 88.1707 34.4471 89.1978 38.2614C90.2249 42.0757 89.7224 45.7339 87.6905 49.2361C85.6585 52.7383 82.726 55.0004 78.8928 56.0224C75.0597 57.0445 71.3834 56.5445 67.8639 54.5225ZM98.0308 71.8538C94.5113 69.8318 92.238 66.9137 91.2109 63.0994C90.1839 59.2851 90.6863 55.6268 92.7183 52.1247C94.7502 48.6225 97.6828 46.3604 101.516 45.3383C105.349 44.3163 109.025 44.8163 112.545 46.8383C116.064 48.8602 118.337 51.7784 119.365 55.5927C120.392 59.407 119.889 63.0652 117.857 66.5674C115.825 70.0696 112.893 72.3317 109.06 73.3537C105.227 74.3758 101.55 73.8758 98.0308 71.8538ZM109.045 104.865C105.525 102.843 103.252 99.9246 102.225 96.1103C101.198 92.296 101.7 88.6378 103.732 85.1356C105.764 81.6334 108.697 79.3713 112.53 78.3493C116.363 77.3272 120.039 77.8272 123.559 79.8492C127.078 81.8712 129.351 84.7893 130.378 88.6036C131.406 92.4179 130.903 96.0762 128.871 99.5783C126.839 103.081 123.907 105.343 120.074 106.365C116.24 107.387 112.564 106.887 109.045 104.865ZM15.4094 117.778C11.6385 115.612 9.30976 112.356 8.42307 108.011C7.53639 103.666 8.22997 99.5335 10.5038 95.6143C13.0196 91.2783 16.7083 88.3388 21.5699 86.7958C26.4315 85.2529 31.248 83.7396 36.0193 82.2559C39.9492 81.0671 43.6769 79.4564 47.2025 77.4239C50.7281 75.3913 54.48 73.7389 58.4583 72.4667C61.5597 71.3578 64.7367 70.7927 67.9893 70.7713C71.2418 70.7498 74.2927 71.5576 77.1417 73.1944C79.9908 74.8313 82.2434 77.0148 83.8994 79.7451C85.5554 82.4754 86.6763 85.4541 87.2619 88.6813C88.0601 92.6976 88.4649 96.7659 88.4765 100.886C88.4881 105.007 88.9348 109.099 89.8168 113.163C90.9112 118.017 92.0024 122.924 93.0904 127.885C94.1783 132.847 93.4644 137.495 90.9487 141.831C88.6748 145.75 85.4254 148.414 81.2005 149.822C76.9756 151.231 72.9777 150.852 69.2069 148.686C64.6818 146.086 60.4164 143.135 56.4106 139.833C52.4048 136.531 48.1394 133.58 43.6144 130.98C39.0894 128.381 34.3885 126.18 29.5119 124.379C24.6352 122.578 19.9344 120.378 15.4094 117.778Z" fill="#172027"/>
</g>
</g>
<g opacity="0.03">
<mask id="mask1_17_76" style="mask-type:alpha" maskUnits="userSpaceOnUse" x="327" y="120" width="143" height="142">
<rect width="103.654" height="103.399" transform="matrix(-0.867088 0.498155 0.501847 0.864956 417.492 120.521)" fill="#172027"/>
</mask>
<g mask="url(#mask1_17_76)">
<path d="M426.855 175.386C429.476 173.88 431.169 171.706 431.934 168.865C432.699 166.024 432.325 163.299 430.811 160.691C429.298 158.082 427.114 156.397 424.259 155.636C421.404 154.875 418.665 155.247 416.044 156.753C413.423 158.259 411.729 160.433 410.964 163.274C410.199 166.115 410.574 168.84 412.087 171.448C413.601 174.057 415.785 175.742 418.64 176.503C421.495 177.264 424.233 176.892 426.855 175.386ZM401.354 170.162C403.976 168.656 405.669 166.482 406.434 163.641C407.199 160.8 406.825 158.075 405.311 155.467C403.798 152.858 401.613 151.173 398.758 150.412C395.903 149.651 393.165 150.023 390.544 151.529C387.922 153.035 386.229 155.209 385.464 158.05C384.699 160.891 385.073 163.616 386.587 166.224C388.1 168.833 390.285 170.518 393.14 171.279C395.995 172.04 398.733 171.668 401.354 170.162ZM378.885 183.071C381.506 181.564 383.2 179.391 383.965 176.55C384.73 173.709 384.355 170.984 382.842 168.376C381.328 165.767 379.144 164.082 376.289 163.321C373.434 162.56 370.696 162.932 368.074 164.438C365.453 165.944 363.76 168.118 362.995 170.959C362.23 173.8 362.604 176.524 364.118 179.133C365.631 181.742 367.815 183.426 370.67 184.188C373.525 184.949 376.264 184.577 378.885 183.071ZM370.681 207.658C373.303 206.152 374.996 203.979 375.761 201.138C376.526 198.297 376.152 195.572 374.638 192.963C373.125 190.355 370.941 188.67 368.086 187.909C365.231 187.147 362.492 187.52 359.871 189.026C357.25 190.532 355.556 192.705 354.791 195.546C354.026 198.387 354.401 201.112 355.914 203.721C357.428 206.329 359.612 208.014 362.467 208.775C365.322 209.537 368.06 209.164 370.681 207.658ZM440.424 217.276C443.233 215.663 444.967 213.238 445.628 210.001C446.288 206.765 445.772 203.687 444.078 200.768C442.204 197.538 439.457 195.349 435.836 194.2C432.214 193.051 428.627 191.923 425.073 190.818C422.146 189.933 419.37 188.733 416.744 187.219C414.118 185.705 411.323 184.475 408.36 183.527C406.05 182.701 403.683 182.28 401.261 182.264C398.838 182.248 396.566 182.85 394.444 184.069C392.322 185.288 390.644 186.915 389.41 188.948C388.177 190.982 387.342 193.2 386.906 195.604C386.311 198.596 386.01 201.626 386.001 204.695C385.993 207.764 385.66 210.812 385.003 213.839C384.188 217.454 383.375 221.11 382.565 224.805C381.754 228.5 382.286 231.962 384.16 235.192C385.854 238.111 388.274 240.095 391.421 241.144C394.568 242.193 397.545 241.911 400.354 240.297C403.724 238.361 406.901 236.163 409.885 233.704C412.869 231.244 416.046 229.046 419.416 227.11C422.786 225.174 426.288 223.535 429.92 222.193C433.552 220.852 437.054 219.213 440.424 217.276Z" fill="#172027"/>
</g>
</g>
</g>
<defs>
<clipPath id="clip0_17_76">
<rect width="456.225" height="284.083" rx="9.36428" fill="white"/>
</clipPath>
</defs>
</svg>
