<svg width="84" height="83" viewBox="0 0 84 83" fill="none" xmlns="http://www.w3.org/2000/svg">
<g clip-path="url(#clip0_17_63)">
<path d="M81.6622 44.4555L64.7209 39.6389C64.2861 39.5165 63.8229 39.5165 63.3879 39.6389L46.4467 44.4555C45.4115 44.7518 44.693 45.6973 44.693 46.7721V58.1386C44.693 69.5404 52.3837 79.6838 63.3926 82.8048C63.6101 82.866 63.8322 82.8965 64.0544 82.8965C64.2766 82.8965 64.4987 82.866 64.7162 82.8048C75.7251 79.6838 83.4158 69.5404 83.4158 58.1386V46.7721C83.4158 45.6973 82.6974 44.7518 81.6622 44.4555ZM73.026 58.1079L63.3453 67.7411C62.8726 68.2115 62.2533 68.4467 61.6342 68.4467C61.0151 68.4467 60.3957 68.2115 59.9232 67.7411L55.0828 62.9245C54.1375 61.9838 54.1375 60.4597 55.0828 59.519C56.0281 58.5783 57.5598 58.5783 58.5051 59.519L61.6342 62.6329L69.6039 54.7024C70.5492 53.7618 72.0808 53.7618 73.0262 54.7024C73.9715 55.6431 73.9715 57.1672 73.026 58.1079Z" fill="#387FEB"/>
<path d="M17.9082 20.2805C19.2448 20.2805 20.3284 19.2022 20.3284 17.8722C20.3284 16.5421 19.2448 15.4639 17.9082 15.4639C16.5716 15.4639 15.488 16.5421 15.488 17.8722C15.488 19.2022 16.5716 20.2805 17.9082 20.2805Z" fill="#387FEB"/>
<path d="M76.1546 0.693359H8.06693C4.06331 0.693359 0.806396 3.93428 0.806396 7.91824V46.772C0.806396 50.756 4.06331 53.9969 8.06693 53.9969H39.8519V46.772C39.8519 43.5689 42.0122 40.7137 45.1082 39.827L62.059 35.008C62.716 34.8223 63.3825 34.7306 64.0537 34.7306C64.7249 34.7306 65.3914 34.8223 66.0342 35.0034C73.0162 37.0168 81.4349 39.3161 83.4151 40.0261V7.91824C83.4151 3.93428 80.1582 0.693359 76.1546 0.693359ZM18.0703 39.5472H13.23C11.8923 39.5472 10.8098 38.47 10.8098 37.1389C10.8098 35.8077 11.8923 34.7306 13.23 34.7306H18.0703C19.408 34.7306 20.4905 35.8077 20.4905 37.1389C20.4905 38.47 19.408 39.5472 18.0703 39.5472ZM17.909 25.0974C13.9055 25.0974 10.6484 21.8563 10.6484 17.8725C10.6484 13.8887 13.9055 10.6476 17.909 10.6476C21.9124 10.6476 25.1695 13.8887 25.1695 17.8725C25.1695 21.8563 21.9124 25.0974 17.909 25.0974ZM32.5914 39.5472H27.751C26.4133 39.5472 25.3309 38.47 25.3309 37.1389C25.3309 35.8077 26.4133 34.7306 27.751 34.7306H32.5914C33.9291 34.7306 35.0116 35.8077 35.0116 37.1389C35.0116 38.47 33.9291 39.5472 32.5914 39.5472ZM71.3142 20.2808H42.2721C40.9344 20.2808 39.8519 19.2037 39.8519 17.8725C39.8519 16.5414 40.9344 15.4642 42.2721 15.4642H71.3142C72.6519 15.4642 73.7344 16.5414 73.7344 17.8725C73.7344 19.2037 72.6519 20.2808 71.3142 20.2808Z" fill="#387FEB"/>
</g>
<defs>
<clipPath id="clip0_17_63">
<rect width="82.6087" height="82.2031" fill="white" transform="translate(0.80835 0.693359)"/>
</clipPath>
</defs>
</svg>
