<svg width="84" height="83" viewBox="0 0 84 83" fill="none" xmlns="http://www.w3.org/2000/svg">
<g clip-path="url(#clip0_17_26)">
<path d="M27.7526 70.6107C23.749 70.6107 20.4921 67.3697 20.4921 63.3858C20.4921 59.4018 23.749 56.1609 27.7526 56.1609C31.7562 56.1609 35.0131 59.4018 35.0131 63.3858C35.0131 67.3697 31.7562 70.6107 27.7526 70.6107ZM27.7526 60.9775C26.4173 60.9775 25.3324 62.057 25.3324 63.3858C25.3324 64.7145 26.4173 65.7941 27.7526 65.7941C29.0879 65.7941 30.1728 64.7145 30.1728 63.3858C30.1728 62.057 29.0879 60.9775 27.7526 60.9775Z" fill="#387FEB"/>
<path d="M66.4762 70.6107C62.4726 70.6107 59.2157 67.3697 59.2157 63.3858C59.2157 59.4018 62.4726 56.1609 66.4762 56.1609C70.4798 56.1609 73.7368 59.4018 73.7368 63.3858C73.7368 67.3697 70.4798 70.6107 66.4762 70.6107ZM66.4762 60.9775C65.1409 60.9775 64.0561 62.057 64.0561 63.3858C64.0561 64.7145 65.1409 65.7941 66.4762 65.7941C67.8115 65.7941 68.8964 64.7145 68.8964 63.3858C68.8964 62.057 67.8115 60.9775 66.4762 60.9775Z" fill="#387FEB"/>
<path d="M0.806519 46.5276H10.8099V51.3442H0.806519V46.5276Z" fill="#387FEB"/>
<path d="M0.806519 36.8943H10.8099V41.7109H0.806519V36.8943Z" fill="#387FEB"/>
<path d="M10.8103 12.8118V27.2615H30.1717V32.0781H10.8103V36.8947H25.3314V41.7113H10.8103V46.5279H20.491V51.3445H10.8103V65.7942H15.8927C15.7476 65.0234 15.6507 64.2046 15.6507 63.3859C15.6507 56.739 21.0719 51.3445 27.7515 51.3445C34.4312 51.3445 39.8524 56.739 39.8524 63.3859C39.8524 64.2046 39.7555 65.0234 39.6104 65.7942H54.6155C54.4704 65.0234 54.3735 64.2046 54.3735 63.3859C54.3735 59.4845 56.3098 56.0164 59.2138 53.8009V12.8118H10.8103Z" fill="#387FEB"/>
<path d="M0.806519 27.261H10.8099V32.0776H0.806519V27.261Z" fill="#387FEB"/>
<path d="M73.7372 41.7115H83.4179V33.4894L77.1595 27.2617H73.7372V41.7115Z" fill="#387FEB"/>
<path d="M68.8968 46.5281V27.2617H58.8934V54.0494C62.443 51.0236 65.648 51.3447 66.4767 51.3447C73.1488 51.3447 78.5775 56.7468 78.5775 63.3861C78.5775 64.2107 78.4922 65.0159 78.3326 65.7944H83.4179V46.5281H68.8968Z" fill="#387FEB"/>
</g>
<defs>
<clipPath id="clip0_17_26">
<rect width="82.6087" height="82.2031" fill="white" transform="translate(0.80835 0.610352)"/>
</clipPath>
</defs>
</svg>
