<svg width="457" height="285" viewBox="0 0 457 285" fill="none" xmlns="http://www.w3.org/2000/svg">
<g clip-path="url(#clip0_17_48)">
<rect width="456.225" height="284.083" rx="9.36428" fill="white"/>
<g opacity="0.03">
<mask id="mask0_17_48" style="mask-type:alpha" maskUnits="userSpaceOnUse" x="-43" y="-18" width="195" height="193">
<rect width="141.315" height="140.968" transform="matrix(0.867088 0.498155 -0.501847 0.864956 28.5039 -17.7305)" fill="#172027"/>
</mask>
<g mask="url(#mask0_17_48)">
<path d="M15.7387 57.0698C12.1648 55.0165 9.85637 52.0533 8.81342 48.18C7.77046 44.3067 8.28066 40.5919 10.344 37.0356C12.4074 33.4793 15.3853 31.1822 19.2777 30.1444C23.17 29.1066 26.9032 29.6143 30.477 31.6675C34.0509 33.7207 36.3593 36.684 37.4022 40.5573C38.4452 44.4305 37.935 48.1453 35.8716 51.7016C33.8083 55.2579 30.8304 57.555 26.938 58.5929C23.0456 59.6307 19.3125 59.123 15.7387 57.0698ZM50.5042 49.9473C46.9303 47.8941 44.6219 44.9309 43.5789 41.0576C42.536 37.1843 43.0462 33.4695 45.1096 29.9132C47.1729 26.3569 50.1508 24.0598 54.0432 23.022C57.9356 21.9842 61.6687 22.4919 65.2425 24.5451C68.8164 26.5983 71.1248 29.5616 72.1678 33.4349C73.2107 37.3081 72.7005 41.0229 70.6372 44.5792C68.5738 48.1355 65.5959 50.4326 61.7035 51.4705C57.8112 52.5083 54.078 52.0006 50.5042 49.9473ZM81.1373 67.5466C77.5634 65.4933 75.255 62.5301 74.2121 58.6568C73.1691 54.7835 73.6793 51.0687 75.7427 47.5124C77.8061 43.9561 80.7839 41.659 84.6763 40.6212C88.5687 39.5834 92.3018 40.0911 95.8757 42.1443C99.4495 44.1975 101.758 47.1608 102.801 51.0341C103.844 54.9073 103.334 58.6221 101.27 62.1784C99.2069 65.7347 96.229 68.0318 92.3367 69.0697C88.4443 70.1075 84.7112 69.5998 81.1373 67.5466ZM92.3214 101.068C88.7476 99.0145 86.4392 96.0513 85.3962 92.178C84.3533 88.3047 84.8635 84.5899 86.9268 81.0336C88.9902 77.4773 91.9681 75.1802 95.8604 74.1424C99.7528 73.1046 103.486 73.6123 107.06 75.6655C110.634 77.7187 112.942 80.682 113.985 84.5553C115.028 88.4285 114.518 92.1433 112.454 95.6996C110.391 99.2559 107.413 101.553 103.521 102.591C99.6284 103.629 95.8953 103.121 92.3214 101.068ZM-2.76121 114.181C-6.59035 111.981 -8.95512 108.675 -9.85551 104.262C-10.7559 99.85 -10.0516 95.654 -7.74259 91.6744C-5.18794 87.2713 -1.44223 84.2864 3.49452 82.7195C8.43127 81.1527 13.3222 79.616 18.1673 78.1094C22.1579 76.9023 25.9433 75.2667 29.5234 73.2027C33.1035 71.1387 36.9134 69.4608 40.9532 68.1689C44.1025 67.0429 47.3286 66.469 50.6314 66.4473C53.9343 66.4255 57.0323 67.2457 59.9254 68.9079C62.8185 70.57 65.1059 72.7873 66.7875 75.5598C68.4691 78.3323 69.6073 81.3571 70.202 84.6341C71.0125 88.7125 71.4236 92.8437 71.4353 97.0277C71.4471 101.212 71.9008 105.367 72.7963 109.495C73.9077 114.423 75.0158 119.407 76.1205 124.444C77.2253 129.482 76.5004 134.202 73.9457 138.606C71.6367 142.585 68.3371 145.29 64.0469 146.72C59.7567 148.151 55.697 147.766 51.8679 145.566C47.2729 142.926 42.9415 139.93 38.8738 136.576C34.8061 133.223 30.4747 130.227 25.8798 127.587C21.2848 124.947 16.5113 122.713 11.5593 120.884C6.60726 119.055 1.83376 116.821 -2.76121 114.181Z" fill="#172027"/>
</g>
</g>
<g opacity="0.03">
<mask id="mask1_17_48" style="mask-type:alpha" maskUnits="userSpaceOnUse" x="317" y="85" width="201" height="199">
<rect width="146.043" height="145.684" transform="matrix(-0.867088 0.498155 0.501847 0.864956 443.926 85.0227)" fill="#172027"/>
</mask>
<g mask="url(#mask1_17_48)">
<path d="M457.117 162.325C460.81 160.203 463.196 157.14 464.274 153.138C465.351 149.135 464.824 145.296 462.692 141.62C460.559 137.945 457.482 135.571 453.459 134.498C449.437 133.426 445.579 133.951 441.885 136.073C438.192 138.194 435.806 141.257 434.728 145.26C433.65 149.263 434.178 153.102 436.31 156.777C438.442 160.452 441.52 162.826 445.543 163.899C449.565 164.971 453.423 164.447 457.117 162.325ZM421.188 154.964C424.881 152.842 427.267 149.78 428.345 145.777C429.423 141.774 428.895 137.935 426.763 134.26C424.631 130.584 421.553 128.21 417.531 127.138C413.508 126.065 409.65 126.59 405.956 128.712C402.263 130.834 399.877 133.896 398.8 137.899C397.722 141.902 398.249 145.741 400.381 149.416C402.514 153.092 405.591 155.466 409.614 156.538C413.636 157.611 417.495 157.086 421.188 154.964ZM389.53 173.152C393.223 171.03 395.609 167.968 396.687 163.965C397.765 159.962 397.237 156.123 395.105 152.448C392.973 148.772 389.895 146.398 385.872 145.326C381.85 144.253 377.992 144.778 374.298 146.9C370.605 149.022 368.219 152.084 367.141 156.087C366.064 160.09 366.591 163.929 368.723 167.604C370.856 171.28 373.933 173.654 377.956 174.726C381.978 175.799 385.836 175.274 389.53 173.152ZM377.972 207.795C381.665 205.673 384.051 202.61 385.128 198.608C386.206 194.605 385.679 190.766 383.547 187.09C381.414 183.415 378.337 181.041 374.314 179.969C370.292 178.896 366.433 179.421 362.74 181.543C359.047 183.665 356.661 186.727 355.583 190.73C354.505 194.733 355.033 198.572 357.165 202.247C359.297 205.922 362.375 208.296 366.397 209.369C370.42 210.441 374.278 209.917 377.972 207.795ZM476.236 221.346C480.193 219.073 482.637 215.656 483.567 211.096C484.498 206.536 483.77 202.2 481.384 198.087C478.743 193.537 474.872 190.452 469.77 188.833C464.669 187.213 459.614 185.625 454.607 184.068C450.483 182.821 446.571 181.13 442.871 178.997C439.171 176.864 435.233 175.13 431.059 173.795C427.804 172.632 424.47 172.038 421.056 172.016C417.643 171.993 414.441 172.841 411.452 174.559C408.462 176.277 406.098 178.568 404.36 181.433C402.622 184.299 401.446 187.425 400.831 190.811C399.993 195.026 399.569 199.296 399.556 203.62C399.544 207.944 399.075 212.238 398.15 216.504C397.001 221.597 395.856 226.747 394.715 231.954C393.573 237.16 394.322 242.038 396.962 246.589C399.348 250.701 402.758 253.497 407.192 254.975C411.626 256.453 415.821 256.055 419.779 253.782C424.527 251.054 429.004 247.957 433.207 244.492C437.411 241.026 441.888 237.93 446.636 235.201C451.385 232.473 456.318 230.164 461.436 228.274C466.554 226.384 471.487 224.075 476.236 221.346Z" fill="#172027"/>
</g>
</g>
</g>
<defs>
<clipPath id="clip0_17_48">
<rect width="456.225" height="284.083" rx="9.36428" fill="white"/>
</clipPath>
</defs>
</svg>
