<svg width="84" height="83" viewBox="0 0 84 83" fill="none" xmlns="http://www.w3.org/2000/svg">
<g clip-path="url(#clip0_111_4159)">
<path d="M81.0254 20.231L75.5954 19.4459L73.167 14.5495C72.2792 12.7595 69.7142 12.7595 68.8264 14.5495L66.398 19.4459L60.968 20.231C58.9829 20.5181 58.1903 22.9455 59.6267 24.3388L63.556 28.15L62.6284 33.5315C62.2892 35.499 64.3644 36.9992 66.1399 36.0704L70.9967 33.5296L75.8535 36.0704C77.629 36.9992 79.7042 35.499 79.365 33.5315L78.4375 28.15L82.3667 24.3388C83.8032 22.9456 83.0105 20.5181 81.0254 20.231Z" fill="#387FEB"/>
<path d="M33.1438 18.5603L31.9307 25.5993C31.5915 27.5667 33.6667 29.0669 35.4422 28.1381L41.7946 24.8146L48.1471 28.1379C49.9226 29.0667 51.9978 27.5665 51.6586 25.5991L50.4455 18.5601L55.5848 13.5751C57.0213 12.1818 56.2286 9.75429 54.2436 9.46738L47.1413 8.44048L43.9649 2.03635C43.0772 0.246347 40.5121 0.246347 39.6244 2.03635L36.4482 8.44065L29.3459 9.46754C27.3609 9.75461 26.5682 12.182 28.0046 13.5753L33.1438 18.5603Z" fill="#387FEB"/>
<path d="M18.7228 45.9697H2.91102C1.57444 45.9697 0.490845 47.048 0.490845 48.378V80.4886C0.490845 81.8186 1.57444 82.8969 2.91102 82.8969H18.7228C20.0594 82.8969 21.143 81.8186 21.143 80.4886V48.378C21.143 47.048 20.0594 45.9697 18.7228 45.9697Z" fill="#387FEB"/>
<path d="M59.0598 49.1803H47.7656V39.5471C47.7656 36.0003 44.8761 33.125 41.3118 33.125C39.5296 33.125 38.0849 34.5626 38.0849 36.3361V43.5609C38.0849 45.114 37.5692 46.6535 36.6328 47.8959C35.2689 49.7055 33.0976 50.7858 30.8244 50.7858H25.984V78.0798H32.2807C35.7612 81.1936 40.214 82.8964 44.9301 82.8964H57.4463C62.0674 82.8964 65.8729 79.3628 66.2819 74.8688H55.8329C54.4963 74.8688 53.4127 73.7905 53.4127 72.4605C53.4127 71.1304 54.4963 70.0522 55.8329 70.0522H66.3203V62.0245H55.8329C54.4963 62.0245 53.4127 60.9462 53.4127 59.6162C53.4127 58.2862 54.4963 57.2079 55.8329 57.2079H66.3203V56.4052C66.3203 52.4214 63.0634 49.1803 59.0598 49.1803Z" fill="#387FEB"/>
<path d="M22.6231 20.2308L17.193 19.4457L14.7646 14.5493C13.8769 12.7593 11.3118 12.7593 10.4241 14.5493L7.9957 19.4457L2.56563 20.2308C0.580602 20.5178 -0.212086 22.9452 1.22437 24.3385L5.15361 28.1497L4.22603 33.5313C3.88689 35.4987 5.96211 36.9989 7.73755 36.0701L12.5944 33.5294L17.4512 36.0701C19.2266 36.9989 21.3018 35.4987 20.9627 33.5313L20.0351 28.1497L23.9643 24.3385C25.4008 22.9454 24.6081 20.5178 22.6231 20.2308Z" fill="#387FEB"/>
</g>
<defs>
<clipPath id="clip0_111_4159">
<rect width="82.6087" height="82.2031" fill="white" transform="translate(0.490723 0.693359)"/>
</clipPath>
</defs>
</svg>
