<svg width="84" height="83" viewBox="0 0 84 83" fill="none" xmlns="http://www.w3.org/2000/svg">
<g clip-path="url(#clip0_111_4131)">
<path d="M41.8148 59.8124C40.1793 59.8124 38.5785 59.6612 37.0249 59.3752L41.8073 64.1724L46.4844 59.3978C44.9686 59.67 43.4081 59.8124 41.8148 59.8124Z" fill="#387FEB"/>
<path d="M57.61 54.9424L41.8373 71.0409L25.7891 54.9449C11.8145 55.0898 0.490723 66.4457 0.490723 80.3856V82.8134H83.0994V80.3856C83.0994 66.3818 71.6723 54.9857 57.61 54.9424Z" fill="#387FEB"/>
<path d="M41.8136 12.3682C30.0032 12.3682 20.395 21.9298 20.395 33.6822C20.395 45.4345 30.0032 54.9956 41.8136 54.9956C46.1485 54.9956 50.1859 53.7061 53.5615 51.4942H37.6526V46.6776H58.7775C61.5689 43.0783 63.2321 38.5703 63.2321 33.6822C63.2321 21.9298 53.6239 12.3682 41.8136 12.3682Z" fill="#387FEB"/>
<path d="M17.7874 23.1473H15.4113C19.7134 12.5709 30.1429 5.42694 41.8051 5.42694C53.4655 5.42694 63.8974 12.5715 68.2002 23.1473H65.843C67.2762 26.3716 68.0741 29.9357 68.0741 33.6824C68.0741 40.5335 65.4094 46.7756 61.0588 51.441C65.0136 50.9895 68.0962 47.6398 68.0962 43.5852V42.3999H73.9947V35.0709H76.2006V30.2537H73.9947V23.1473H73.3607C68.8191 9.78883 56.1012 0.610352 41.8051 0.610352C27.5065 0.610352 14.7924 9.78758 10.2508 23.1473H9.60984V30.6632H6.99365V35.4798H9.60984V42.4005H17.0607C16.0876 39.6724 15.5563 36.7379 15.5563 33.6824C15.5563 29.9357 16.3542 26.3716 17.7874 23.1473Z" fill="#387FEB"/>
</g>
<defs>
<clipPath id="clip0_111_4131">
<rect width="82.6087" height="82.2031" fill="white" transform="translate(0.490723 0.610352)"/>
</clipPath>
</defs>
</svg>
