<svg width="457" height="285" viewBox="0 0 457 285" fill="none" xmlns="http://www.w3.org/2000/svg">
<g clip-path="url(#clip0_111_4144)">
<rect width="456.225" height="284.083" rx="9.36428" fill="white"/>
<g opacity="0.03">
<mask id="mask0_111_4144" style="mask-type:alpha" maskUnits="userSpaceOnUse" x="-1" y="14" width="212" height="211">
<rect width="168.023" height="167.346" transform="matrix(0.954232 0.299067 -0.301757 0.953385 50.4958 14.9641)" fill="#172027"/>
</mask>
<g mask="url(#mask0_111_4144)">
<path d="M55.0456 104.989C50.3692 103.523 46.9251 100.678 44.7131 96.453C42.5012 92.2279 42.1316 87.7887 43.6045 83.1353C45.0773 78.4819 47.9367 75.0546 52.1826 72.8535C56.4285 70.6524 60.8896 70.2847 65.566 71.7503C70.2424 73.216 73.6865 76.0613 75.8985 80.2864C78.1104 84.5114 78.48 88.9506 77.0071 93.604C75.5343 98.2575 72.6749 101.685 68.429 103.886C64.1831 106.087 59.722 106.455 55.0456 104.989ZM93.5243 87.82C88.8479 86.3543 85.4038 83.509 83.1918 79.2839C80.9799 75.0589 80.6103 70.6197 82.0832 65.9663C83.556 61.3128 86.4154 57.8856 90.6613 55.6845C94.9072 53.4834 99.3684 53.1157 104.045 54.5813C108.721 56.0469 112.165 58.8923 114.377 63.1173C116.589 67.3424 116.959 71.7816 115.486 76.435C114.013 81.0884 111.154 84.5157 106.908 86.7168C102.662 88.9178 98.2007 89.2856 93.5243 87.82ZM133.607 100.382C128.931 98.9168 125.487 96.0715 123.275 91.8465C121.063 87.6214 120.694 83.1822 122.166 78.5288C123.639 73.8754 126.499 70.4481 130.745 68.247C134.99 66.0459 139.452 65.6782 144.128 67.1438C148.804 68.6094 152.248 71.4548 154.46 75.6798C156.672 79.9049 157.042 84.3441 155.569 88.9975C154.096 93.6509 151.237 97.0782 146.991 99.2793C142.745 101.48 138.284 101.848 133.607 100.382ZM155.254 136.395C150.577 134.93 147.133 132.084 144.921 127.859C142.709 123.634 142.34 119.195 143.812 114.542C145.285 109.888 148.145 106.461 152.391 104.26C156.636 102.059 161.098 101.691 165.774 103.157C170.45 104.622 173.894 107.468 176.106 111.693C178.318 115.918 178.688 120.357 177.215 125.01C175.742 129.664 172.883 133.091 168.637 135.292C164.391 137.493 159.93 137.861 155.254 136.395ZM48.3679 175.968C43.3575 174.398 39.7593 171.169 37.5732 166.282C35.3871 161.395 35.1181 156.348 36.7663 151.141C38.5899 145.38 42.1618 140.958 47.4821 137.876C52.8024 134.793 58.0773 131.758 63.3069 128.769C67.6229 126.346 71.59 123.479 75.2082 120.168C78.8264 116.857 82.811 113.935 87.1621 111.401C90.5234 109.288 94.1166 107.796 97.9417 106.924C101.767 106.053 105.572 106.21 109.358 107.397C113.143 108.583 116.37 110.569 119.038 113.353C121.706 116.138 123.809 119.355 125.346 123.003C127.342 127.526 128.888 132.212 129.984 137.061C131.08 141.911 132.682 146.615 134.789 151.172C137.353 156.604 139.928 162.099 142.513 167.659C145.098 173.219 145.478 178.88 143.655 184.641C142.007 189.848 138.88 193.831 134.274 196.589C129.668 199.347 124.86 199.941 119.85 198.371C113.837 196.487 108.038 194.121 102.453 191.274C96.8671 188.428 91.0681 186.062 85.0556 184.178C79.0431 182.294 72.9285 180.925 66.7118 180.073C60.495 179.221 54.3804 177.852 48.3679 175.968Z" fill="#172027"/>
</g>
</g>
<g opacity="0.03">
<mask id="mask1_111_4144" style="mask-type:alpha" maskUnits="userSpaceOnUse" x="306" y="85" width="170" height="169">
<rect width="123.672" height="123.368" transform="matrix(-0.867088 0.498155 0.501847 0.864956 413.261 85.0237)" fill="#172027"/>
</mask>
<g mask="url(#mask1_111_4144)">
<path d="M424.433 150.485C427.561 148.688 429.581 146.095 430.494 142.705C431.406 139.315 430.96 136.064 429.154 132.952C427.348 129.84 424.742 127.829 421.336 126.921C417.93 126.013 414.663 126.457 411.535 128.254C408.407 130.051 406.387 132.644 405.474 136.034C404.562 139.424 405.008 142.675 406.814 145.787C408.62 148.899 411.226 150.91 414.632 151.818C418.038 152.726 421.305 152.282 424.433 150.485ZM394.008 144.252C397.136 142.455 399.156 139.861 400.069 136.472C400.981 133.082 400.535 129.831 398.729 126.719C396.923 123.607 394.317 121.596 390.911 120.688C387.505 119.78 384.238 120.224 381.11 122.021C377.982 123.818 375.962 126.411 375.049 129.801C374.136 133.19 374.583 136.441 376.389 139.554C378.195 142.666 380.801 144.676 384.207 145.585C387.613 146.493 390.88 146.049 394.008 144.252ZM367.2 159.654C370.327 157.857 372.347 155.263 373.26 151.874C374.173 148.484 373.726 145.233 371.921 142.121C370.115 139.008 367.509 136.998 364.102 136.09C360.696 135.182 357.429 135.626 354.301 137.423C351.174 139.22 349.153 141.813 348.241 145.203C347.328 148.592 347.774 151.843 349.58 154.956C351.386 158.068 353.992 160.078 357.398 160.987C360.805 161.895 364.072 161.45 367.2 159.654ZM357.412 188.99C360.539 187.193 362.56 184.599 363.472 181.21C364.385 177.82 363.939 174.569 362.133 171.457C360.327 168.344 357.721 166.334 354.315 165.426C350.908 164.518 347.641 164.962 344.514 166.759C341.386 168.556 339.366 171.149 338.453 174.539C337.54 177.928 337.987 181.179 339.792 184.292C341.598 187.404 344.204 189.414 347.611 190.323C351.017 191.231 354.284 190.787 357.412 188.99ZM440.623 200.465C443.974 198.54 446.044 195.647 446.832 191.785C447.62 187.924 447.003 184.252 444.983 180.769C442.747 176.916 439.469 174.303 435.149 172.932C430.828 171.561 426.548 170.216 422.308 168.898C418.815 167.841 415.503 166.41 412.369 164.604C409.236 162.797 405.902 161.329 402.367 160.198C399.611 159.213 396.787 158.711 393.897 158.692C391.006 158.672 388.295 159.39 385.763 160.845C383.231 162.3 381.229 164.24 379.758 166.666C378.286 169.093 377.29 171.74 376.77 174.608C376.06 178.177 375.701 181.792 375.69 185.454C375.68 189.116 375.283 192.752 374.499 196.364C373.527 200.678 372.557 205.039 371.59 209.448C370.623 213.856 371.258 217.987 373.493 221.841C375.514 225.324 378.402 227.691 382.156 228.942C385.911 230.194 389.464 229.857 392.815 227.932C396.836 225.622 400.627 222.999 404.186 220.065C407.746 217.131 411.537 214.508 415.558 212.198C419.579 209.888 423.757 207.932 428.091 206.332C432.424 204.731 436.602 202.776 440.623 200.465Z" fill="#172027"/>
</g>
</g>
</g>
<defs>
<clipPath id="clip0_111_4144">
<rect width="456.225" height="284.083" rx="9.36428" fill="white"/>
</clipPath>
</defs>
</svg>
