<svg width="457" height="285" viewBox="0 0 457 285" fill="none" xmlns="http://www.w3.org/2000/svg">
<g clip-path="url(#clip0_111_4107)">
<rect width="456.225" height="284.083" rx="9.36428" fill="white"/>
<g clip-path="url(#clip1_111_4107)">
<path d="M213.753 107.457C209.749 107.457 206.492 104.216 206.492 100.232C206.492 96.2485 209.749 93.0076 213.753 93.0076C217.756 93.0076 221.013 96.2485 221.013 100.232C221.013 104.216 217.756 107.457 213.753 107.457ZM213.753 97.8242C212.417 97.8242 211.333 98.9037 211.333 100.232C211.333 101.561 212.417 102.641 213.753 102.641C215.088 102.641 216.173 101.561 216.173 100.232C216.173 98.9037 215.088 97.8242 213.753 97.8242Z" fill="white"/>
<path d="M252.476 107.457C248.473 107.457 245.216 104.216 245.216 100.232C245.216 96.2485 248.473 93.0076 252.476 93.0076C256.48 93.0076 259.737 96.2485 259.737 100.232C259.737 104.216 256.48 107.457 252.476 107.457ZM252.476 97.8242C251.141 97.8242 250.056 98.9037 250.056 100.232C250.056 101.561 251.141 102.641 252.476 102.641C253.812 102.641 254.897 101.561 254.897 100.232C254.897 98.9037 253.812 97.8242 252.476 97.8242Z" fill="white"/>
<path d="M186.807 83.3743H196.81V88.1909H186.807V83.3743Z" fill="white"/>
<path d="M186.807 73.741H196.81V78.5576H186.807V73.741Z" fill="white"/>
<path d="M196.81 49.6584V64.1082H216.172V68.9248H196.81V73.7414H211.331V78.558H196.81V83.3746H206.491V88.1911H196.81V102.641H201.893C201.748 101.87 201.651 101.051 201.651 100.233C201.651 93.5857 207.072 88.1911 213.752 88.1911C220.431 88.1911 225.852 93.5857 225.852 100.233C225.852 101.051 225.755 101.87 225.61 102.641H240.615C240.47 101.87 240.373 101.051 240.373 100.233C240.373 96.3312 242.31 92.8631 245.214 90.6476V49.6584H196.81Z" fill="white"/>
<path d="M186.807 64.1077H196.81V68.9243H186.807V64.1077Z" fill="white"/>
<path d="M259.737 78.5582H269.418V70.3361L263.16 64.1084H259.737V78.5582Z" fill="white"/>
<path d="M254.897 83.3747V64.1084H244.894V90.8961C248.443 87.8702 251.648 88.1913 252.477 88.1913C259.149 88.1913 264.578 93.5935 264.578 100.233C264.578 101.057 264.492 101.863 264.333 102.641H269.418V83.3747H254.897Z" fill="white"/>
</g>
<path d="M196.173 156.926V166.994H202.705V174.246H196.173V191.566H187.782V149.614H203.065V156.926H196.173ZM220.489 149.614L224.984 191.566H216.594L215.635 181.198H211.979L211.08 191.566H202.69L207.364 149.614H220.489ZM214.976 173.886L214.137 163.878H213.537L212.638 173.886H214.976ZM238.892 164.537V159.443C238.892 157.405 238.093 156.386 236.495 156.386C234.937 156.386 234.158 157.405 234.158 159.443V162.26C234.158 162.899 234.218 163.458 234.338 163.938C234.458 164.377 234.697 164.797 235.057 165.196C235.416 165.596 235.936 166.015 236.615 166.455C237.334 166.854 238.273 167.334 239.432 167.893L241.469 168.792C242.588 169.312 243.527 169.891 244.286 170.53C245.045 171.169 245.645 171.949 246.084 172.867C246.564 173.746 246.903 174.785 247.103 175.984C247.303 177.183 247.403 178.601 247.403 180.239V181.198C247.403 184.714 246.444 187.431 244.526 189.349C242.608 191.266 239.891 192.225 236.375 192.225C232.899 192.225 230.242 191.286 228.404 189.409C226.567 187.531 225.648 184.794 225.648 181.198V176.763H234.038V181.857C234.038 183.895 234.857 184.914 236.495 184.914C238.133 184.914 238.952 183.915 238.952 181.917V178.861C238.952 178.221 238.892 177.682 238.773 177.242C238.653 176.803 238.413 176.383 238.053 175.984C237.734 175.584 237.234 175.185 236.555 174.785C235.916 174.386 235.057 173.926 233.978 173.407L231.701 172.388C230.582 171.869 229.643 171.289 228.884 170.65C228.125 169.971 227.505 169.172 227.026 168.253C226.587 167.334 226.267 166.275 226.067 165.076C225.867 163.838 225.767 162.399 225.767 160.761V160.042C225.767 156.486 226.686 153.769 228.524 151.891C230.362 150.014 232.979 149.075 236.375 149.075C239.851 149.075 242.528 150.034 244.406 151.951C246.324 153.829 247.283 156.526 247.283 160.042V164.537H238.892ZM269.135 156.926H262.962V191.566H254.572V156.926H248.459V149.614H269.135V156.926ZM161.696 219.537V214.443C161.696 212.405 160.897 211.386 159.298 211.386C157.74 211.386 156.961 212.405 156.961 214.443V217.26C156.961 217.899 157.021 218.458 157.141 218.938C157.261 219.377 157.5 219.797 157.86 220.196C158.22 220.596 158.739 221.015 159.418 221.455C160.137 221.854 161.076 222.334 162.235 222.893L164.273 223.792C165.391 224.312 166.33 224.891 167.09 225.53C167.849 226.169 168.448 226.949 168.887 227.867C169.367 228.746 169.707 229.785 169.906 230.984C170.106 232.183 170.206 233.601 170.206 235.239V236.198C170.206 239.714 169.247 242.431 167.329 244.349C165.411 246.266 162.695 247.225 159.179 247.225C155.703 247.225 153.046 246.286 151.208 244.409C149.37 242.531 148.451 239.794 148.451 236.198V231.763H156.841V236.857C156.841 238.895 157.66 239.914 159.298 239.914C160.937 239.914 161.756 238.915 161.756 236.917V233.861C161.756 233.221 161.696 232.682 161.576 232.242C161.456 231.803 161.216 231.383 160.857 230.984C160.537 230.584 160.038 230.185 159.358 229.785C158.719 229.386 157.86 228.926 156.781 228.407L154.504 227.388C153.385 226.869 152.446 226.289 151.687 225.65C150.928 224.971 150.309 224.172 149.829 223.253C149.39 222.334 149.07 221.275 148.87 220.076C148.671 218.838 148.571 217.399 148.571 215.761V215.042C148.571 211.486 149.49 208.769 151.328 206.891C153.165 205.014 155.782 204.075 159.179 204.075C162.655 204.075 165.332 205.034 167.209 206.951C169.127 208.829 170.086 211.526 170.086 215.042V219.537H161.696ZM193.313 204.674V246.626H184.862V228.766H180.547V246.626H172.157V204.674H180.547V221.455H184.862V204.674H193.313ZM203.664 204.674V246.626H195.274V204.674H203.664ZM216.06 204.674C219.615 204.674 222.332 205.853 224.21 208.21C226.088 210.567 227.027 214.243 227.027 219.237V219.357C227.027 221.914 226.787 224.072 226.308 225.83C225.868 227.588 225.189 229.006 224.27 230.085C223.391 231.164 222.252 231.943 220.854 232.422C219.496 232.902 217.877 233.141 216 233.141H214.082V246.626H205.691V204.674H216.06ZM214.082 225.89H216C216.958 225.89 217.638 225.63 218.037 225.111C218.437 224.551 218.637 223.652 218.637 222.414V215.641C218.637 214.323 218.437 213.384 218.037 212.825C217.638 212.265 216.958 211.986 216 211.986H214.082V225.89ZM239.002 204.674C242.558 204.674 245.275 205.853 247.153 208.21C249.031 210.567 249.969 214.243 249.969 219.237V219.357C249.969 221.914 249.73 224.072 249.25 225.83C248.811 227.588 248.132 229.006 247.213 230.085C246.334 231.164 245.195 231.943 243.797 232.422C242.438 232.902 240.82 233.141 238.942 233.141H237.024V246.626H228.634V204.674H239.002ZM237.024 225.89H238.942C239.901 225.89 240.58 225.63 240.98 225.111C241.379 224.551 241.579 223.652 241.579 222.414V215.641C241.579 214.323 241.379 213.384 240.98 212.825C240.58 212.265 239.901 211.986 238.942 211.986H237.024V225.89ZM259.967 204.674V246.626H251.576V204.674H259.967ZM284.109 204.674V246.626H274.819L269.006 219.237H268.527L270.385 246.626H261.994V204.674H271.224L277.217 232.242H277.696L275.718 204.674H284.109ZM294.496 236.857C294.496 237.896 294.716 238.675 295.155 239.194C295.595 239.674 296.114 239.914 296.714 239.914C297.393 239.914 298.012 239.594 298.571 238.955C299.131 238.315 299.41 237.317 299.41 235.958V229.186H296.714V223.732H307.801V246.566H301.988V242.431H301.448C300.969 243.989 300.09 245.188 298.811 246.027C297.533 246.826 296.134 247.225 294.616 247.225C293.617 247.225 292.598 247.026 291.559 246.626C290.561 246.186 289.642 245.527 288.803 244.648C288.004 243.729 287.344 242.571 286.825 241.172C286.345 239.774 286.106 238.116 286.106 236.198V214.982C286.106 211.227 287.065 208.47 288.982 206.712C290.94 204.914 293.557 204.015 296.833 204.015C300.15 204.015 302.807 204.934 304.804 206.772C306.802 208.61 307.801 211.346 307.801 214.982V221.695H299.41V214.383C299.41 213.224 299.151 212.425 298.631 211.986C298.152 211.546 297.593 211.326 296.953 211.326C296.314 211.326 295.735 211.546 295.215 211.986C294.736 212.425 294.496 213.224 294.496 214.383V236.857Z" fill="white"/>
<g opacity="0.03">
<mask id="mask0_111_4107" style="mask-type:alpha" maskUnits="userSpaceOnUse" x="-91" y="-4" width="230" height="228">
<rect width="167.901" height="167.469" transform="matrix(0.873885 -0.486133 0.489793 0.871839 -90.1172 77.9026)" fill="#172027"/>
</mask>
<g mask="url(#mask0_111_4107)">
<path d="M-21.1637 136.361C-25.4432 138.742 -29.8864 139.284 -34.4932 137.987C-39.1 136.691 -42.5995 133.913 -44.9919 129.655C-47.3843 125.396 -47.929 120.975 -46.626 116.391C-45.323 111.807 -42.5318 108.324 -38.2522 105.944C-33.9727 103.563 -29.5296 103.021 -24.9228 104.317C-20.316 105.614 -16.8164 108.392 -14.424 112.65C-12.0316 116.909 -11.4869 121.33 -12.7899 125.914C-14.0929 130.498 -16.8842 133.981 -21.1637 136.361ZM-7.32339 96.7229C-11.6029 99.1036 -16.0461 99.6456 -20.6528 98.349C-25.2596 97.0524 -28.7592 94.2748 -31.1516 90.0163C-33.544 85.7578 -34.0887 81.3365 -32.7857 76.7523C-31.4827 72.1681 -28.6914 68.6857 -24.4119 66.3051C-20.1324 63.9244 -15.6893 63.3824 -11.0825 64.679C-6.47567 65.9756 -2.97608 68.7532 -0.583683 73.0117C1.80871 77.2702 2.35341 81.6915 1.0504 86.2757C-0.252616 90.8599 -3.04388 94.3423 -7.32339 96.7229ZM29.3581 76.3174C25.0786 78.698 20.6355 79.24 16.0287 77.9434C11.4219 76.6468 7.9223 73.8693 5.5299 69.6108C3.13751 65.3523 2.59282 60.9309 3.89582 56.3468C5.19883 51.7626 7.99009 48.2802 12.2696 45.8995C16.5491 43.5189 20.9923 42.9769 25.5991 44.2735C30.2059 45.5701 33.7054 48.3476 36.0978 52.6061C38.4902 56.8646 39.0349 61.286 37.7319 65.8701C36.4289 70.4543 33.6376 73.9367 29.3581 76.3174ZM70.5401 85.3475C66.2606 87.7281 61.8174 88.2701 57.2106 86.9735C52.6039 85.6769 49.1043 82.8994 46.7119 78.6409C44.3195 74.3824 43.7748 69.961 45.0778 65.3769C46.3808 60.7927 49.1721 57.3103 53.4516 54.9296C57.7311 52.549 62.1742 52.007 66.781 53.3036C71.3878 54.6002 74.8874 57.3777 77.2798 61.6362C79.6722 65.8947 80.2169 70.3161 78.9139 74.9002C77.6109 79.4844 74.8196 82.9668 70.5401 85.3475ZM26.1576 189.885C21.5724 192.436 16.7433 192.826 11.6704 191.057C6.59748 189.288 2.72241 186.021 0.0452112 181.255C-2.9168 175.983 -3.69996 170.363 -2.30426 164.397C-0.90857 158.43 0.490142 152.529 1.89185 146.692C3.08094 141.905 3.70581 137.066 3.76646 132.175C3.82711 127.283 4.42349 122.394 5.55562 117.505C6.31626 113.622 7.68986 109.997 9.67641 106.629C11.663 103.262 14.3884 100.614 17.8528 98.6873C21.3172 96.7601 24.9825 95.7858 28.8488 95.7643C32.7151 95.7428 36.5095 96.4266 40.2322 97.8158C44.908 99.4733 49.395 101.568 53.6933 104.101C57.9916 106.634 62.5296 108.701 67.3072 110.302C73.0381 112.171 78.8228 114.076 84.6615 116.019C90.5002 117.961 94.9006 121.568 97.8626 126.84C100.54 131.606 101.307 136.602 100.165 141.829C99.022 147.056 96.1581 150.944 91.5729 153.495C86.0707 156.556 80.3631 159.132 74.4501 161.224C68.5371 163.315 62.8295 165.892 57.3273 168.953C51.8251 172.013 46.6301 175.502 41.7424 179.419C36.8547 183.335 31.6598 186.824 26.1576 189.885Z" fill="#172027"/>
</g>
</g>
<g opacity="0.03">
<mask id="mask1_111_4107" style="mask-type:alpha" maskUnits="userSpaceOnUse" x="337" y="50" width="223" height="222">
<rect width="167.957" height="167.413" transform="matrix(-0.911627 -0.411018 -0.414389 0.9101 559.496 119.493)" fill="#172027"/>
</mask>
<g mask="url(#mask1_111_4107)">
<path d="M495.739 183.523C500.204 185.536 504.678 185.704 509.158 184.026C513.639 182.348 516.891 179.287 518.914 174.843C520.938 170.399 521.106 165.948 519.42 161.489C517.733 157.03 514.657 153.794 510.191 151.781C505.726 149.767 501.252 149.6 496.772 151.278C492.291 152.956 489.039 156.017 487.016 160.461C484.992 164.905 484.824 169.356 486.51 173.815C488.197 178.273 491.273 181.51 495.739 183.523ZM478.592 145.186C483.058 147.199 487.531 147.367 492.012 145.689C496.492 144.01 499.744 140.949 501.768 136.505C503.791 132.062 503.96 127.61 502.273 123.152C500.587 118.693 497.511 115.457 493.045 113.443C488.579 111.43 484.106 111.262 479.625 112.94C475.144 114.619 471.892 117.68 469.869 122.124C467.846 126.567 467.677 131.019 469.364 135.477C471.05 139.936 474.126 143.172 478.592 145.186ZM440.313 127.927C444.779 129.941 449.253 130.108 453.733 128.43C458.214 126.752 461.466 123.691 463.489 119.247C465.513 114.803 465.681 110.352 463.995 105.893C462.308 101.435 459.232 98.1986 454.766 96.1851C450.301 94.1716 445.827 94.004 441.347 95.6821C436.866 97.3603 433.614 100.421 431.591 104.865C429.567 109.309 429.399 113.76 431.085 118.219C432.772 122.678 435.848 125.914 440.313 127.927ZM400.042 140.377C404.508 142.391 408.981 142.558 413.462 140.88C417.943 139.202 421.195 136.141 423.218 131.697C425.242 127.253 425.41 122.802 423.724 118.343C422.037 113.885 418.961 110.649 414.495 108.635C410.029 106.622 405.556 106.454 401.075 108.132C396.595 109.81 393.343 112.871 391.319 117.315C389.296 121.759 389.127 126.21 390.814 130.669C392.5 135.128 395.576 138.364 400.042 140.377ZM453.116 240.823C457.901 242.98 462.746 242.965 467.651 240.777C472.556 238.588 476.141 235.008 478.405 230.035C480.91 224.533 481.215 218.868 479.319 213.04C477.424 207.211 475.53 201.448 473.639 195.749C472.049 191.079 471.017 186.309 470.543 181.441C470.068 176.572 469.06 171.75 467.518 166.974C466.431 163.168 464.756 159.671 462.491 156.482C460.227 153.293 457.287 150.883 453.672 149.253C450.056 147.623 446.322 146.96 442.467 147.262C438.613 147.565 434.89 148.564 431.298 150.261C426.779 152.304 422.485 154.768 418.417 157.652C414.348 160.536 410.001 162.976 405.376 164.972C399.824 167.315 394.221 169.698 388.567 172.123C382.914 174.548 378.834 178.511 376.329 184.013C374.065 188.986 373.723 194.028 375.304 199.141C376.885 204.253 380.068 207.888 384.853 210.046C390.595 212.634 396.5 214.723 402.569 216.312C408.638 217.9 414.544 219.989 420.285 222.578C426.027 225.166 431.499 228.207 436.701 231.7C441.903 235.193 447.375 238.234 453.116 240.823Z" fill="#172027"/>
</g>
</g>
</g>
<defs>
<clipPath id="clip0_111_4107">
<rect width="456.225" height="284.083" rx="9.36428" fill="white"/>
</clipPath>
<clipPath id="clip1_111_4107">
<rect width="82.6087" height="82.2031" fill="white" transform="translate(186.808 37.457)"/>
</clipPath>
</defs>
</svg>
